<?xml version="1.0" encoding="utf-8"?>
<!-- Generator: Adobe Illustrator 24.0.3, SVG Export Plug-In . SVG Version: 6.00 Build 0)  -->
<svg version="1.1" id="Layer_1" xmlns="http://www.w3.org/2000/svg" xmlns:xlink="http://www.w3.org/1999/xlink" x="0px" y="0px"
	 viewBox="0 0 205.4 135.8" enable-background="new 0 0 205.4 135.8" xml:space="preserve">
<g>
	<g>
		<g id="vMxfdE.tif_3_">
			<g>
				<path fill="#FEFEFE" d="M128.5,52.4c-0.7,0-1.4-0.1-2-0.1c-0.6,0-0.8-0.3-1-0.8c-0.9-2.8-2-5.5-3.4-8.2c-2.4-4.6-5.4-8.9-9-12.7
					c-0.3-0.3-0.3-0.5-0.2-0.9c0.9-2.2,2-4.3,3.6-6.1c0.7-0.8,0.7-0.8,1.6-0.3c1.4,0.8,2.8,1.4,4.4,1.4c1.5,0,2.4-1,2.2-2.3
					c-0.1-0.6-0.2-1.1-0.5-1.7c-1.6-3-4.1-5-7.2-6.4c-1-0.4-2-0.6-3-0.5c-1.2,0.1-1.8,0.8-1.8,2c0,0.6,0.2,1.2,0.4,1.7
					c0.5,1.1,1.3,2.1,2.1,3c0.2,0.2,0.3,0.3,0.1,0.6c-1.8,1.8-3.5,3.5-5.7,4.8c-0.4,0.2-0.6,0.2-0.9-0.1c-3-2.5-6.1-4.6-9.5-6.4
					c-3.9-2.1-7.9-3.7-12.2-4.8c-0.5-0.1-0.8-0.4-0.9-0.8c-0.7-2-0.9-4.1-0.7-6.2c0-0.3,0.1-0.4,0.4-0.4c0.7,0,1.4,0,2.1-0.2
					c1.2-0.2,2.4-0.5,3.3-1.4c0.9-0.8,1-1.8,0.3-2.8c-0.5-0.6-1.1-1.1-1.8-1.4c-2.5-1.2-5.1-1.6-7.8-1.3c-1.4,0.1-2.7,0.4-3.8,1.2
					c-1.4,1-1.5,2.4-0.1,3.6c1.2,1,2.6,1.6,4.1,1.9c0.5,0.1,0.5,0.3,0.4,0.7c-0.6,2.1-1.6,3.8-3,5.4c-0.2,0.3-0.5,0.3-0.8,0.2
					c-2.6-0.3-5.2-0.4-7.8-0.4C64,12.9,58,14,52.2,16.1c-0.4,0.1-0.7,0.1-1-0.1c-2.1-1.5-3.5-3.4-4.6-5.6c-0.1-0.3-0.1-0.4,0.2-0.6
					c0.4-0.3,0.8-0.5,1.2-0.8c1.2-0.9,2.3-1.9,2.9-3.4c0.6-1.5,0-2.7-1.6-3c-0.9-0.2-1.9-0.2-2.8-0.1c-3.2,0.5-6,1.9-8.4,3.9
					c-1,0.9-1.9,1.9-2.2,3.2c-0.2,0.7,0,1.3,0.5,1.8c0.6,0.6,1.4,0.7,2.1,0.8c1.7,0.1,3.3-0.3,4.9-0.9c0.4-0.2,0.6,0,0.8,0.3
					c0.4,0.7,0.7,1.5,0.7,2.4c0.1,2.6-1.3,4.7-2.7,6.7c-0.1,0.1-0.2,0.1-0.3,0.2c-4.4,2.6-8.4,5.8-11.9,9.6c-0.5,0.5-1,0.7-1.7,0.6
					c-2.8-0.4-5.3-1.4-7.6-2.9c-0.3-0.2-0.4-0.3-0.1-0.7c0.7-0.9,1.3-1.9,1.8-3c0.5-1.1,0.8-2.2,0.7-3.4c-0.1-1.2-0.8-1.9-2.1-1.9
					c-0.7,0-1.4,0.2-2,0.5C16.5,21,14.6,23,13,25.3c-1,1.5-1.7,3-1.9,4.8c-0.1,1.8,0.8,2.7,2.6,2.5c0.6-0.1,1.1-0.3,1.6-0.5
					c1.3-0.6,2.4-1.5,3.5-2.5c0.2-0.2,0.3-0.3,0.6-0.1c2,2,3.9,4.2,5.2,6.7c0.2,0.4,0.2,0.7-0.1,1.1c-3.4,5-6,10.4-7.5,16.2
					c-0.3,1.1-0.8,1.8-1.9,2.3c-2.3,1-4.6,1.8-7.1,2.1c-0.4,0-0.5,0-0.6-0.5c-0.1-0.7-0.1-1.4-0.3-2.1c-0.3-1.2-0.6-2.3-1.4-3.3
					c-0.9-1.1-2.2-1.2-3.2-0.1c-0.6,0.7-1.1,1.5-1.5,2.3c-1.2,3.1-1.4,6.3-0.8,9.6c0.2,1.1,0.6,2.2,1.4,3.1c0.9,1.1,2,1.1,3.1,0.2
					c0.5-0.4,0.9-1,1.2-1.6c0.7-1.3,1.1-2.8,1.3-4.2C7.4,61.1,7.5,61,7.9,61c1,0,2,0.1,3,0.2c1.3,0.1,2.5,0.3,3.7,0.8
					c0.5,0.2,0.6,0.5,0.6,1c-0.4,3.2-0.4,6.5-0.1,9.7c0.2,2.2,0.5,4.3,0.9,6.4c0.5,2.8,1.3,5.5,2.3,8.1c0.1,0.2,0.1,0.3-0.1,0.5
					c-1.9,2.1-4.2,3.6-6.9,4.5c-0.3,0.1-0.4,0-0.5-0.2c-0.4-0.6-0.8-1.2-1.3-1.8c-1-1.2-2-2.3-3.5-2.8c-1.3-0.5-2.4,0.1-2.7,1.4
					C3,89.6,3,90.3,3.1,91.1c0.3,2.9,1.5,5.4,3.2,7.7c0.9,1.3,2,2.5,3.5,3.2c1.7,0.8,3,0.2,3.4-1.7c0-0.2,0-0.4,0.1-0.6
					c0.1-1.7-0.3-3.3-0.9-4.9c-0.1-0.3-0.2-0.5,0.2-0.6c2.4-1,4.9-1.8,7.5-2.1c0.4,0,0.6,0.1,0.7,0.4c0.7,1.5,1.5,2.9,2.4,4.3
					c3.1,5.2,7,9.7,11.6,13.6c1,0.8,1,0.8,0.6,2c-0.4,1.5-1.2,2.9-1.8,4.2c-0.2,0.3-0.3,0.3-0.6,0.2c-0.9-0.4-1.8-0.8-2.7-1.1
					c-1.2-0.3-2.5-0.6-3.8-0.3c-1.2,0.3-1.6,1.2-1.3,2.3c0.3,1,0.9,1.9,1.6,2.6c1.8,2,4.1,3.4,6.5,4.3c1.4,0.5,2.8,0.9,4.2,0.8
					c0.9,0,1.8-0.2,2.2-1.2c0.3-0.8,0-1.6-0.4-2.3c-0.9-1.5-2.1-2.6-3.5-3.6c-0.3-0.2-0.4-0.4-0.2-0.7c0.8-1.3,1.7-2.6,2.6-3.9
					c0.3-0.4,0.6-0.5,1-0.1c2.5,1.7,5.1,3.2,7.9,4.6c4.1,1.9,8.4,3.4,12.8,4.3c0.3,0.1,0.6,0.2,0.7,0.6c0.4,1.6,0.4,3.1,0.3,4.7
					c0,0.4-0.2,0.5-0.6,0.5c-0.9,0-1.8,0.1-2.6,0.2c-1.3,0.2-2.5,0.5-3.5,1.4c-0.9,0.8-1,1.8-0.2,2.7c0.6,0.6,1.3,1.1,2.1,1.4
					c1.6,0.7,3.2,1.1,4.9,1.2c2.5,0.2,4.9,0.2,7.2-0.8c0.9-0.4,1.7-0.9,1.8-2c0.1-1.1-0.7-1.7-1.5-2.2c-1.2-0.8-2.5-1.2-3.8-1.5
					c-0.4-0.1-0.5-0.3-0.4-0.7c0.4-1.4,0.8-2.8,1.3-4.1c0.2-0.5,0.4-0.6,0.9-0.5c5.7,0.6,11.3,0.2,16.9-0.9c3.2-0.7,6.4-1.6,9.5-2.8
					c0.3-0.1,0.5-0.1,0.8,0.1c1.3,1.2,2.3,2.5,3.1,4c0.2,0.3,0.1,0.5-0.2,0.6c-0.5,0.3-1.1,0.5-1.5,0.8c-1.3,0.8-2.5,1.7-3.2,3.2
					c-0.5,1-0.1,2,0.9,2.5c0.7,0.4,1.5,0.5,2.4,0.5c2.9,0,5.5-0.9,8-2.2c1.3-0.8,2.6-1.7,3.4-3c0.8-1.3,0.4-2.5-1-3
					c-0.4-0.2-0.9-0.3-1.4-0.3c-1.5-0.1-3,0.1-4.5,0.5c-0.3,0.1-0.5,0.1-0.6-0.3c-0.4-1.7-0.8-3.5-0.8-5.3c0-0.3,0.1-0.5,0.4-0.7
					c2.5-1.3,4.8-2.8,7.1-4.4c2.5-1.8,4.8-3.9,7-6.1c0.2-0.2,0.4-0.5,0.8-0.4c2.4,0.5,4.6,1.3,6.8,2.5c0.3,0.2,0.4,0.4,0.1,0.7
					c-0.3,0.3-0.5,0.7-0.7,1c-0.7,1.1-1.2,2.2-1.2,3.5c0,1.3,0.8,2.1,2.1,2.1c0.9,0,1.8-0.3,2.6-0.7c2.6-1.3,4.7-3.3,6.1-5.9
					c0.6-1,1-2,1-3.2c0-1.3-0.8-2-2.1-2c-0.9,0-1.7,0.3-2.5,0.6c-1.2,0.6-2.3,1.3-3.3,2.2c-0.2,0.2-0.3,0.3-0.6,0.1
					c-1.8-1.4-3.5-3-4.7-5c-0.2-0.3-0.2-0.6,0.1-0.9c1.3-1.6,2.4-3.4,3.5-5.1c1.7-2.8,3.1-5.7,4.2-8.7c0.1-0.3,0.1-0.5,0.6-0.5
					c2.2,0.1,4.4,0.3,6.5,0.8c0.3,0.1,0.5,0.2,0.4,0.5c-0.1,0.4-0.2,0.9-0.2,1.3c-0.1,1.3-0.1,2.6,0.6,3.8c0.5,1,1.4,1.3,2.5,0.9
					c0.7-0.3,1.3-0.8,1.8-1.3c2.4-2.9,3.5-6.3,3.3-10.1c0-0.6-0.2-1.2-0.5-1.8c-0.6-1-1.6-1.4-2.6-0.9c-0.5,0.2-0.9,0.6-1.3,0.9
					c-1.1,1-1.8,2.3-2.4,3.7c-0.5,1-0.5,1-1.5,0.6c-1.8-0.8-3.4-1.8-4.8-3.3c-0.3-0.3-0.4-0.6-0.3-1c0.8-3.4,1.3-6.8,1.5-10.3
					c0.2-4.7-0.1-9.4-1.1-14c-0.1-0.5,0-0.7,0.4-0.9c1.7-0.9,3.5-1.6,5.5-2c1.1-0.2,1.1-0.2,1.6,0.8c0.1,0.2,0.2,0.4,0.3,0.6
					c0.7,1.3,1.4,2.4,2.6,3.2c1.3,0.8,2.5,0.5,3.1-0.9c0.4-0.8,0.5-1.7,0.6-2.6c0-2.2-0.4-4.3-1.3-6.3c-0.6-1.4-1.4-2.8-2.7-3.8
					c-1.4-1.1-2.9-0.7-3.5,1c-0.6,1.6-0.5,3.3-0.2,4.9c0.1,0.4,0,0.6-0.4,0.6C131.4,52.2,129.9,52.4,128.5,52.4z"/>
				<path fill="#F2B543" d="M128.5,52.4c1.5,0,2.9-0.2,4.3-0.4c0.4-0.1,0.5-0.2,0.4-0.6c-0.3-1.6-0.4-3.3,0.2-4.9
					c0.6-1.7,2.1-2.1,3.5-1c1.3,1,2.1,2.3,2.7,3.8c0.9,2,1.4,4.1,1.3,6.3c0,0.9-0.2,1.8-0.6,2.6c-0.7,1.4-1.8,1.7-3.1,0.9
					c-1.2-0.8-2-2-2.6-3.2c-0.1-0.2-0.2-0.4-0.3-0.6c-0.5-1-0.4-1-1.6-0.8c-1.9,0.4-3.7,1-5.5,2c-0.4,0.2-0.5,0.4-0.4,0.9
					c1,4.6,1.3,9.3,1.1,14c-0.2,3.5-0.7,6.9-1.5,10.3c-0.1,0.4,0,0.7,0.3,1c1.4,1.4,3,2.5,4.8,3.3c1,0.5,1.1,0.5,1.5-0.6
					c0.6-1.4,1.3-2.6,2.4-3.7c0.4-0.4,0.8-0.7,1.3-0.9c1.1-0.5,2.1-0.1,2.6,0.9c0.3,0.6,0.5,1.2,0.5,1.8c0.2,3.8-0.9,7.2-3.3,10.1
					c-0.5,0.6-1.1,1.1-1.8,1.3c-1.1,0.4-1.9,0.1-2.5-0.9c-0.6-1.2-0.6-2.5-0.6-3.8c0-0.4,0.1-0.9,0.2-1.3c0.1-0.4-0.1-0.5-0.4-0.5
					c-2.2-0.5-4.3-0.7-6.5-0.8c-0.4,0-0.5,0.2-0.6,0.5c-1.1,3-2.6,5.9-4.2,8.7c-1.1,1.8-2.2,3.5-3.5,5.1c-0.2,0.3-0.3,0.5-0.1,0.9
					c1.2,2,2.9,3.6,4.7,5c0.3,0.2,0.4,0,0.6-0.1c1-0.9,2-1.7,3.3-2.2c0.8-0.4,1.6-0.6,2.5-0.6c1.3,0,2,0.7,2.1,2
					c0,1.1-0.4,2.2-1,3.2c-1.5,2.6-3.5,4.6-6.1,5.9c-0.8,0.4-1.7,0.7-2.6,0.7c-1.3,0-2.1-0.8-2.1-2.1c0-1.3,0.6-2.4,1.2-3.5
					c0.2-0.4,0.4-0.7,0.7-1c0.3-0.3,0.2-0.5-0.1-0.7c-2.1-1.2-4.4-2-6.8-2.5c-0.4-0.1-0.6,0.1-0.8,0.4c-2.2,2.2-4.5,4.2-7,6.1
					c-2.2,1.7-4.6,3.1-7.1,4.4c-0.3,0.2-0.4,0.4-0.4,0.7c0,1.8,0.4,3.5,0.8,5.3c0.1,0.4,0.3,0.4,0.6,0.3c1.5-0.4,2.9-0.6,4.5-0.5
					c0.5,0,0.9,0.1,1.4,0.3c1.4,0.6,1.8,1.7,1,3c-0.8,1.3-2,2.3-3.4,3c-2.5,1.4-5.1,2.3-8,2.2c-0.8,0-1.6-0.1-2.4-0.5
					c-1-0.5-1.4-1.5-0.9-2.5c0.7-1.4,1.9-2.3,3.2-3.2c0.5-0.3,1-0.6,1.5-0.8c0.3-0.2,0.4-0.3,0.2-0.6c-0.8-1.5-1.8-2.9-3.1-4
					c-0.3-0.2-0.5-0.3-0.8-0.1c-3.1,1.2-6.2,2.2-9.5,2.8c-5.6,1.1-11.2,1.5-16.9,0.9c-0.5,0-0.7,0-0.9,0.5c-0.5,1.3-0.9,2.7-1.3,4.1
					c-0.1,0.4,0,0.6,0.4,0.7c1.3,0.3,2.7,0.7,3.8,1.5c0.8,0.5,1.6,1.2,1.5,2.2c-0.1,1.1-0.9,1.6-1.8,2c-2.3,1-4.8,1.1-7.2,0.8
					c-1.7-0.2-3.3-0.5-4.9-1.2c-0.8-0.4-1.5-0.8-2.1-1.4c-0.8-0.9-0.7-1.9,0.2-2.7c1-0.9,2.3-1.2,3.5-1.4c0.9-0.2,1.8-0.2,2.6-0.2
					c0.4,0,0.5-0.2,0.6-0.5c0.1-1.6,0.1-3.2-0.3-4.7c-0.1-0.4-0.3-0.5-0.7-0.6c-4.4-0.9-8.7-2.4-12.8-4.3c-2.7-1.3-5.4-2.8-7.9-4.6
					c-0.5-0.3-0.7-0.3-1,0.1c-1,1.2-1.8,2.5-2.6,3.9c-0.2,0.3-0.1,0.5,0.2,0.7c1.4,1,2.6,2.1,3.5,3.6c0.4,0.7,0.7,1.5,0.4,2.3
					c-0.4,1-1.3,1.2-2.2,1.2c-1.5,0.1-2.9-0.3-4.2-0.8c-2.5-1-4.7-2.4-6.5-4.3c-0.7-0.8-1.3-1.6-1.6-2.6c-0.3-1.2,0.2-2,1.3-2.3
					c1.3-0.4,2.5-0.1,3.8,0.3c1,0.2,1.9,0.6,2.7,1.1c0.3,0.1,0.5,0.1,0.6-0.2c0.7-1.4,1.4-2.8,1.8-4.2c0.4-1.2,0.4-1.2-0.6-2
					c-4.6-3.9-8.5-8.4-11.6-13.6c-0.9-1.4-1.7-2.8-2.4-4.3c-0.2-0.3-0.4-0.4-0.7-0.4c-2.6,0.3-5.1,1.1-7.5,2.1
					c-0.4,0.2-0.3,0.4-0.2,0.6c0.6,1.6,1,3.2,0.9,4.9c0,0.2,0,0.4-0.1,0.6c-0.4,1.8-1.7,2.5-3.4,1.7c-1.5-0.7-2.5-1.9-3.5-3.2
					c-1.7-2.3-2.9-4.9-3.2-7.7C3,90.3,3,89.6,3.3,88.8C3.7,87.5,4.8,87,6,87.4c1.5,0.5,2.5,1.6,3.5,2.8c0.5,0.6,0.9,1.2,1.3,1.8
					c0.1,0.2,0.3,0.3,0.5,0.2c2.7-0.9,5-2.4,6.9-4.5c0.2-0.2,0.1-0.3,0.1-0.5c-1-2.6-1.7-5.3-2.3-8.1c-0.4-2.1-0.7-4.3-0.9-6.4
					c-0.2-3.2-0.2-6.5,0.1-9.7c0.1-0.5-0.1-0.8-0.6-1c-1.2-0.5-2.5-0.7-3.7-0.8c-1-0.1-2-0.2-3-0.2c-0.4,0-0.5,0.1-0.6,0.5
					c-0.2,1.5-0.6,2.9-1.3,4.2c-0.3,0.6-0.7,1.1-1.2,1.6c-1,0.9-2.2,0.9-3.1-0.2c-0.8-0.9-1.1-2-1.4-3.1c-0.7-3.3-0.5-6.5,0.8-9.6
					c0.3-0.9,0.8-1.7,1.5-2.3c1-1,2.3-1,3.2,0.1c0.8,1,1.1,2.1,1.4,3.3c0.2,0.7,0.2,1.4,0.3,2.1C7.5,58,7.6,58.1,8,58
					c2.5-0.3,4.8-1.1,7.1-2.1c1.1-0.5,1.6-1.1,1.9-2.3c1.6-5.8,4.1-11.2,7.5-16.2c0.3-0.4,0.3-0.7,0.1-1.1c-1.4-2.5-3.2-4.7-5.2-6.7
					c-0.3-0.3-0.4-0.1-0.6,0.1c-1,1-2.2,1.9-3.5,2.5c-0.5,0.2-1,0.4-1.6,0.5c-1.8,0.2-2.7-0.8-2.6-2.5c0.1-1.8,0.9-3.4,1.9-4.8
					c1.6-2.4,3.5-4.4,6.1-5.6c0.6-0.3,1.3-0.5,2-0.5c1.2,0,2,0.7,2.1,1.9c0.1,1.2-0.2,2.3-0.7,3.4c-0.5,1.1-1,2-1.8,3
					c-0.2,0.3-0.2,0.5,0.1,0.7c2.4,1.5,4.9,2.5,7.6,2.9c0.7,0.1,1.2,0,1.7-0.6c3.5-3.7,7.5-6.9,11.9-9.6c0.1-0.1,0.2-0.1,0.3-0.2
					c1.5-2,2.8-4.1,2.7-6.7c0-0.8-0.3-1.6-0.7-2.4c-0.2-0.3-0.4-0.5-0.8-0.3c-1.6,0.6-3.2,1-4.9,0.9c-0.8-0.1-1.5-0.2-2.1-0.8
					c-0.5-0.5-0.7-1.1-0.5-1.8c0.3-1.4,1.2-2.4,2.2-3.2c2.4-2.1,5.2-3.4,8.4-3.9c0.9-0.1,1.9-0.2,2.8,0.1c1.6,0.4,2.2,1.5,1.6,3
					c-0.6,1.4-1.7,2.4-2.9,3.4c-0.4,0.3-0.8,0.6-1.2,0.8c-0.3,0.2-0.3,0.3-0.2,0.6c1.1,2.2,2.5,4.2,4.6,5.6c0.3,0.2,0.6,0.3,1,0.1
					C58,14,64,12.9,70.1,12.7c2.6-0.1,5.2,0.1,7.8,0.4c0.3,0,0.6,0,0.8-0.2c1.4-1.6,2.5-3.3,3-5.4c0.1-0.4,0.1-0.6-0.4-0.7
					c-1.5-0.3-2.9-0.9-4.1-1.9c-1.3-1.1-1.3-2.6,0.1-3.6c1.2-0.8,2.5-1.1,3.8-1.2c2.7-0.2,5.3,0.1,7.8,1.3c0.7,0.3,1.3,0.8,1.8,1.4
					c0.7,1,0.7,2-0.3,2.8c-0.9,0.8-2.1,1.1-3.3,1.4c-0.7,0.1-1.4,0.1-2.1,0.2c-0.3,0-0.4,0.1-0.4,0.4c-0.1,2.1,0.1,4.2,0.7,6.2
					c0.2,0.5,0.4,0.7,0.9,0.8c4.2,1.1,8.3,2.7,12.2,4.8c3.4,1.8,6.6,4,9.5,6.4c0.3,0.3,0.6,0.3,0.9,0.1c2.2-1.3,4-3.1,5.7-4.8
					c0.2-0.2,0.1-0.4-0.1-0.6c-0.8-0.9-1.6-1.9-2.1-3c-0.2-0.6-0.4-1.1-0.4-1.7c0-1.2,0.6-1.9,1.8-2c1.1-0.1,2.1,0.1,3,0.5
					c3.1,1.3,5.6,3.4,7.2,6.4c0.3,0.5,0.4,1.1,0.5,1.7c0.2,1.3-0.7,2.3-2.2,2.3c-1.6,0-3-0.6-4.4-1.4c-1-0.5-0.9-0.5-1.6,0.3
					c-1.5,1.8-2.7,3.9-3.6,6.1c-0.1,0.4-0.1,0.6,0.2,0.9c3.6,3.8,6.6,8,9,12.7c1.4,2.6,2.5,5.3,3.4,8.2c0.2,0.5,0.4,0.8,1,0.8
					C127.1,52.3,127.8,52.3,128.5,52.4z M117.2,105.9C117.2,105.9,117.2,105.9,117.2,105.9C117.2,105.9,117.2,105.9,117.2,105.9
					c0-0.1,0-0.2-0.1-0.2c-0.9-1.1-1.7-2.2-2.3-3.5c-0.1-0.3-0.2-0.4,0-0.6c0.4-0.4,0.7-0.9,1.1-1.4c1.6-2.1,3-4.2,4.2-6.5
					c1.3-2.5,2.5-5,3.3-7.6c0.1-0.3,0.3-0.5,0.7-0.5c0.3,0,0.6,0,0.9,0.1c1,0.1,2,0.1,3.1,0.2c-0.2-0.2-0.3-0.3-0.5-0.4
					c-1-0.7-2-1.6-2.8-2.5c-0.2-0.3-0.3-0.5-0.2-0.8c0.2-0.6,0.3-1.3,0.5-1.9c0.3-1.7,0.6-3.5,0.9-5.2c0.2-1.5,0.3-3.1,0.4-4.6
					c0.1-1.9,0.1-3.7-0.1-5.6c-0.1-0.6,0-1.3-0.1-1.9c-0.3-2.2-0.6-4.4-1.1-6.6c-0.1-0.3,0-0.4,0.2-0.6c0.9-0.5,1.7-1.1,2.7-1.5
					c0-0.1-0.1-0.2-0.2-0.2c-0.8,0-1.6-0.2-2.5-0.2c-0.6-0.1-1-0.3-1.2-1c-0.3-1.2-0.8-2.4-1.2-3.6c-0.6-1.6-1.3-3.2-2.1-4.8
					c-0.3-0.6-0.5-1.4-1.1-1.9c0-0.3-0.2-0.6-0.4-0.9c-2.3-3.9-5-7.5-8.2-10.8c-0.3-0.3-0.3-0.5-0.2-0.9c0.6-1.5,1.3-3.1,2.1-4.5
					c0.1-0.2,0.3-0.5,0.4-0.8c-0.3-0.1-0.4,0.1-0.5,0.2c-1.3,1.1-2.7,2.1-4.3,2.9c-0.4,0.2-0.6,0.2-0.9-0.1c-0.5-0.4-1-0.8-1.5-1.2
					c-4.3-3.5-9-6.2-14.2-8.3c-2.3-0.9-4.7-1.7-7.1-2.3c-0.4-0.1-0.6-0.3-0.8-0.7c-0.6-1.5-1-3-1.2-4.6c0-0.5,0-1-0.2-1.5
					c-0.1,0.1-0.1,0.2-0.2,0.2c-0.8,1.9-1.9,3.5-3.4,5c-0.2,0.2-0.5,0.4-0.8,0.3c-1.8-0.2-3.6-0.4-5.3-0.5c-2-0.1-4,0-6,0.2
					c-3.3,0.3-6.5,0.8-9.7,1.6c-1.9,0.5-3.8,1.1-5.7,1.8c-0.2,0.1-0.4,0.2-0.7,0c-1.5-0.9-2.8-2-3.9-3.4c-0.2-0.2-0.3-0.5-0.6-0.6
					c0,0.8,0,1.5-0.2,2.2c-0.4,1.8-1.3,3.4-2.3,4.9c-0.4,0.7-1,1.2-1.7,1.6C39.8,24.1,37.3,26,35,28c-1.6,1.4-3.1,2.8-4.5,4.4
					c-0.2,0.2-0.4,0.3-0.7,0.3c-1.7,0-3.4-0.4-5.1-1c-0.5-0.2-1-0.3-1.5-0.5c0,0.2,0.1,0.3,0.2,0.4c1.3,1.5,2.3,3.1,3.1,4.9
					c0.2,0.4,0.2,0.7-0.1,1c-1.6,2.3-3.1,4.7-4.3,7.3c-1.7,3.5-3.1,7.2-4,11c0,0.2-0.1,0.4-0.4,0.5c-1.9,1-3.9,1.9-6,2.5
					c-0.5,0.1-1,0.3-1.5,0.4c0.6,0.2,1.2,0.2,1.8,0.3c1.7,0.2,3.3,0.6,4.7,1.7c0.2,0.2,0.3,0.3,0.3,0.6c-0.2,1.8-0.3,3.6-0.4,5.4
					c-0.1,2.2,0.1,4.3,0.3,6.5c0.2,3,1,5.8,1.5,8.8c0,0.2,0.1,0.4,0.3,0.4c0,0.2,0.1,0.4,0.1,0.6c0.4,1.3,0.8,2.6,1.3,3.8
					c0.1,0.2,0.1,0.5-0.1,0.7c-0.5,0.5-0.9,1-1.4,1.5c-0.4,0.4-0.9,0.8-1.3,1.2c0.1,0.1,0.2,0.1,0.2,0.1c1.1-0.2,2.3-0.4,3.4-0.3
					c0.3,0,0.5,0.1,0.7,0.4c0.7,1.3,1.4,2.7,2.1,4c1.1,1.9,2.3,3.7,3.6,5.4c1.2,1.6,2.5,3.1,3.8,4.6c1.7,1.9,3.6,3.6,5.5,5.2
					c0.3,0.2,0.4,0.4,0.4,0.8c0,0.7,0,1.4-0.2,2c0.1-0.1,0.2-0.1,0.3-0.2c0.2-0.2,0.4-0.3,0.5-0.5c0.2-0.3,0.4-0.5,0.6-0.7
					c0.4-0.2,0.5,0.3,0.7,0.4c2.3,1.5,4.6,3,7,4.2c1.9,1,3.7,1.8,5.7,2.6c1.4,0.6,2.9,1,4.4,1.5c1.4,0.4,2.8,0.8,4.3,1
					c0.5,0.1,1.2,0.1,1.4,0.8c0.4,1.5,0.7,2.9,0.7,4.5c0,0.5,0,1,0,1.6c0.1-0.5,0.3-1,0.5-1.5c0.4-1.3,0.7-2.6,1.3-3.7
					c0.4-0.8,0.6-0.9,1.5-0.7c1.2,0.3,2.4,0.3,3.6,0.3c2.7,0.1,5.5,0,8.2-0.3c1.4-0.2,2.7-0.4,4.1-0.6c0.8-0.1,1.6-0.4,2.5-0.5
					c1.7-0.4,3.4-0.8,5-1.4c1.2-0.4,2.5-0.9,3.7-1.4c0.3-0.1,0.6-0.1,0.9,0.1c0.7,0.6,1.4,1.1,2,1.9c0.2,0.3,0.4,0.6,0.8,0.7
					c-0.4-1.3-0.3-2.6-0.3-3.9c0-0.2,0-0.4,0.2-0.5c2.1-1.1,4.1-2.3,6-3.6c2-1.3,3.8-2.8,5.6-4.3c1.3-1.1,2.5-2.4,3.7-3.6
					c0.3-0.3,0.5-0.3,0.9-0.3c0.5,0.1,1,0.2,1.4,0.3C115.2,105.2,116.2,105.7,117.2,105.9z M27.2,117.1c-0.1,0-0.2,0-0.2,0
					c-1.3,0-1.8,0.7-1.2,1.9c0.6,1.3,1.7,2.1,2.7,2.9c1.9,1.4,4,2.6,6.3,3.2c0.8,0.2,1.6,0.4,2.5,0.2c0.9-0.2,1.1-1.1,0.7-1.7
					c-0.7-1.4-1.9-2.3-3.1-3.3c-1.2-1-2.6-1.7-4.1-2.3C29.8,117.5,28.5,117.1,27.2,117.1z M3.8,90.8c-0.1,0.9,0.2,2,0.5,2.9
					c0.6,1.7,1.4,3.2,2.4,4.7c0.8,1.1,1.6,2.1,2.9,2.7c0.9,0.4,1.6,0.1,1.7-1c0.1-1,0-2-0.3-2.9c-0.6-2.1-1.6-4-2.9-5.7
					c-0.7-1-1.5-1.9-2.7-2.5c-0.9-0.4-1.7,0-1.7,1.1C3.8,90.3,3.8,90.5,3.8,90.8z M103.5,124.7c-0.7-0.1-1.4,0-2.1,0.2
					c-1.5,0.3-2.9,0.8-4.3,1.4c-1.4,0.7-2.7,1.4-3.7,2.6c-0.4,0.4-0.6,0.9-0.4,1.5c0.2,0.5,0.7,0.7,1.2,0.8c1.7,0.3,3.3-0.1,4.8-0.5
					c2.1-0.6,4-1.5,5.7-2.9c0.5-0.4,0.9-0.8,1.2-1.4c0.3-0.6,0.2-1.1-0.5-1.5C104.7,124.6,104.1,124.7,103.5,124.7z M62.8,135.3
					c0.9-0.1,1.9-0.1,2.9-0.3c0.8-0.1,1.6-0.3,2.3-0.8c0.9-0.6,0.6-1.3,0-1.8c-0.6-0.5-1.4-0.8-2.1-1.1c-2.7-0.8-5.5-1-8.3-0.7
					c-1,0.1-2,0.3-2.8,1c-0.4,0.3-0.5,1-0.1,1.4c0.4,0.4,0.9,0.8,1.4,1C58.2,134.9,60.5,135.1,62.8,135.3z M127.8,105.6
					c-0.6-0.1-1.2,0.2-1.8,0.5c-2.2,1.1-3.9,2.7-5.1,4.8c-0.5,0.9-0.9,1.8-0.9,2.9c0.1,0.7,0.4,1,1.1,1.1c1.5,0.1,2.6-0.6,3.7-1.4
					c1-0.7,1.9-1.5,2.7-2.5c0.9-1.1,1.7-2.3,1.9-3.8C129.4,106.1,129,105.6,127.8,105.6z"/>
				<path fill="#F75D1D" d="M27.2,117.1c1.3,0,2.5,0.4,3.7,0.9c1.4,0.6,2.8,1.4,4.1,2.3c1.2,0.9,2.4,1.9,3.1,3.3
					c0.3,0.6,0.2,1.5-0.7,1.7c-0.9,0.2-1.7,0-2.5-0.2c-2.3-0.6-4.4-1.8-6.3-3.2c-1.1-0.8-2.1-1.7-2.7-2.9c-0.6-1.2-0.2-1.9,1.2-1.9
					C27.1,117.1,27.1,117.1,27.2,117.1z"/>
				<path fill="#F75D1D" d="M3.8,90.8c0-0.3,0-0.5,0-0.7c0-1,0.8-1.5,1.7-1.1c1.1,0.5,1.9,1.5,2.7,2.5c1.3,1.7,2.3,3.6,2.9,5.7
					c0.3,0.9,0.4,2,0.3,2.9c-0.1,1-0.8,1.4-1.7,1c-1.3-0.6-2.1-1.6-2.9-2.7c-1-1.4-1.8-3-2.4-4.7C4,92.8,3.7,91.8,3.8,90.8z"/>
				<path fill="#F75D1D" d="M103.5,124.7c0.7,0,1.3,0,1.8,0.3c0.7,0.4,0.8,0.9,0.5,1.5c-0.3,0.5-0.7,1-1.2,1.4
					c-1.7,1.3-3.6,2.3-5.7,2.9c-1.6,0.5-3.2,0.8-4.8,0.5c-0.5-0.1-1-0.3-1.2-0.8c-0.2-0.6,0.1-1,0.4-1.5c1-1.2,2.3-1.9,3.7-2.6
					c1.4-0.7,2.8-1.1,4.3-1.4C102.1,124.7,102.8,124.6,103.5,124.7z"/>
				<path fill="#F75D1D" d="M62.8,135.3c-2.3-0.2-4.6-0.4-6.7-1.3c-0.5-0.2-1-0.6-1.4-1c-0.4-0.4-0.3-1,0.1-1.4
					c0.8-0.7,1.8-0.9,2.8-1c2.8-0.3,5.6-0.1,8.3,0.7c0.8,0.2,1.5,0.6,2.1,1.1c0.6,0.4,0.9,1.2,0,1.8c-0.7,0.5-1.5,0.7-2.3,0.8
					C64.7,135.2,63.8,135.2,62.8,135.3z"/>
				<path fill="#F75D1D" d="M127.8,105.6c1.2,0,1.6,0.5,1.5,1.6c-0.2,1.5-1,2.6-1.9,3.8c-0.8,1-1.6,1.8-2.7,2.5
					c-1.1,0.8-2.2,1.5-3.7,1.4c-0.7-0.1-1-0.4-1.1-1.1c-0.1-1.1,0.3-2,0.9-2.9c1.3-2.1,3-3.7,5.1-4.8
					C126.6,105.7,127.2,105.4,127.8,105.6z"/>
				<path fill="#7FB272" d="M117.2,105.9C117.2,105.9,117.2,105.9,117.2,105.9C117.2,105.9,117.2,105.9,117.2,105.9
					C117.2,105.9,117.2,105.9,117.2,105.9z"/>
			</g>
		</g>
		<path fill="#F75D1D" d="M127.7,85.4c-1-0.7-2-1.6-2.8-2.5c-0.2-0.3-0.3-0.5-0.2-0.8c0.2-0.6,0.3-1.3,0.5-1.9
			c0.3-1.7,0.6-3.5,0.9-5.2c0.2-1.5,0.3-3.1,0.4-4.6c0.1-1.9,0.1-3.7-0.1-5.6c0-0.6,0-1.3-0.1-1.9c-0.3-2.2-0.6-4.4-1.1-6.6
			c-0.1-0.3,0-0.4,0.2-0.6c0.9-0.5,1.7-1.1,2.7-1.5c0-0.1-0.1-0.2-0.2-0.2c-0.8,0-1.6-0.2-2.5-0.2c-0.6-0.1-1-0.3-1.2-1
			c-0.3-1.2-0.8-2.4-1.2-3.6c-0.6-1.6-1.3-3.2-2.1-4.8c-0.3-0.6-0.5-1.4-1.1-1.9c0-0.3-0.2-0.6-0.4-0.9c-2.3-3.9-5-7.5-8.2-10.8
			c-0.3-0.3-0.3-0.5-0.2-0.9c0.6-1.5,1.3-3.1,2.1-4.5c0.1-0.2,0.3-0.5,0.4-0.8c-0.3-0.1-0.4,0.1-0.5,0.2c-1.3,1.1-2.7,2.1-4.3,2.9
			c-0.4,0.2-0.6,0.2-0.9-0.1c-0.5-0.4-1-0.8-1.5-1.2c-4.3-3.5-9-6.2-14.2-8.3c-2.3-0.9-4.7-1.7-7.1-2.3c-0.4-0.1-0.6-0.3-0.8-0.7
			c-0.6-1.5-1-3-1.2-4.6c0-0.5,0-1-0.2-1.5c-0.1,0.1-0.1,0.2-0.2,0.2c-0.8,1.9-1.9,3.5-3.4,5c-0.2,0.2-0.5,0.4-0.8,0.3
			c-1.8-0.2-3.6-0.4-5.3-0.5c-2-0.1-4,0-6,0.2c-3.3,0.3-6.5,0.8-9.7,1.6c-1.9,0.5-3.8,1.1-5.7,1.8c-0.2,0.1-0.4,0.2-0.7,0
			c-1.5-0.9-2.8-2-3.9-3.4c-0.2-0.2-0.3-0.5-0.6-0.6c0,0.8,0,1.5-0.2,2.2c-0.4,1.8-1.3,3.4-2.3,4.9c-0.4,0.7-1,1.2-1.7,1.6
			C39.8,24.1,37.3,26,35,28c-1.6,1.4-3.1,2.8-4.5,4.4c-0.2,0.2-0.4,0.3-0.7,0.3c-1.7,0-3.4-0.4-5.1-1c-0.5-0.2-1-0.3-1.5-0.5
			c0,0.2,0.1,0.3,0.2,0.4c1.3,1.5,2.3,3.1,3.1,4.9c0.2,0.4,0.2,0.7-0.1,1c-1.6,2.3-3.1,4.7-4.3,7.3c-1.7,3.5-3.1,7.2-4,11
			c0,0.2-0.1,0.4-0.4,0.5c-1.9,1-3.9,1.9-6,2.5c-0.5,0.1-1,0.3-1.5,0.4c0.6,0.2,1.2,0.2,1.8,0.3c1.7,0.2,3.3,0.6,4.7,1.7
			c0.2,0.2,0.3,0.3,0.3,0.6c-0.2,1.8-0.3,3.6-0.4,5.4c-0.1,2.2,0.1,4.3,0.3,6.5c0.2,3,1,5.8,1.5,8.8c0,0.2,0.1,0.4,0.3,0.4
			c0,0.2,0.1,0.4,0.1,0.6c0.4,1.3,0.8,2.6,1.3,3.8c0.1,0.2,0.1,0.5-0.1,0.7c-0.5,0.5-0.9,1-1.4,1.5c-0.4,0.4-0.9,0.8-1.3,1.2
			c0.1,0.1,0.2,0.1,0.2,0.1c1.1-0.2,2.3-0.4,3.4-0.3c0.3,0,0.5,0.1,0.7,0.4c0.7,1.3,1.4,2.7,2.1,4c1.1,1.9,2.3,3.7,3.6,5.4
			c1.2,1.6,2.5,3.1,3.8,4.6c1.7,1.9,3.6,3.6,5.5,5.2c0.3,0.2,0.4,0.4,0.4,0.8c0,0.7,0,1.4-0.2,2c0.1-0.1,0.2-0.1,0.3-0.2
			c0.2-0.2,0.4-0.3,0.5-0.5c0.2-0.3,0.4-0.5,0.6-0.7c0.4-0.2,0.5,0.3,0.7,0.4c2.3,1.5,4.6,3,7,4.2c1.8,1,3.7,1.8,5.7,2.6
			c1.4,0.6,2.9,1,4.4,1.5c1.4,0.4,2.8,0.8,4.3,1c0.5,0.1,1.2,0.1,1.4,0.8c0.4,1.5,0.7,2.9,0.7,4.5c0,0.5,0,1,0,1.6
			c0.1-0.5,0.3-1,0.5-1.5c0.4-1.3,0.7-2.6,1.3-3.7c0.4-0.8,0.6-0.9,1.5-0.7c1.2,0.3,2.4,0.3,3.6,0.3c2.7,0.1,5.5,0,8.2-0.3
			c1.4-0.2,2.7-0.4,4.1-0.6c0.8-0.1,1.6-0.4,2.5-0.5c1.7-0.4,3.4-0.8,5-1.4c1.2-0.4,2.5-0.9,3.7-1.4c0.3-0.1,0.6-0.1,0.9,0.1
			c0.7,0.6,1.4,1.1,2,1.9c0.2,0.3,0.4,0.6,0.8,0.7c-0.4-1.3-0.3-2.6-0.3-3.9c0-0.2,0-0.4,0.2-0.5c2.1-1.1,4.1-2.3,6-3.6
			c2-1.3,3.8-2.8,5.6-4.3c1.3-1.1,2.5-2.4,3.7-3.6c0.3-0.3,0.5-0.3,0.9-0.3c0.5,0.1,1,0.2,1.4,0.3c1,0.2,2,0.6,3,0.8l0,0
			c0-0.1,0-0.2-0.1-0.2c-0.9-1.1-1.7-2.2-2.3-3.5c-0.1-0.3-0.2-0.4,0-0.6c0.4-0.4,0.7-0.9,1.1-1.4c1.6-2.1,3-4.2,4.2-6.5
			c1.3-2.5,2.5-5,3.3-7.6c0.1-0.3,0.3-0.5,0.7-0.5c0.3,0,0.6,0,0.9,0.1c1,0.1,2,0.1,3.1,0.2C128,85.6,127.8,85.5,127.7,85.4z"/>
	</g>
	<circle fill="#F2B543" cx="81" cy="85.9" r="5.9"/>
	<circle fill="#F2B543" cx="69.3" cy="61.9" r="5.9"/>
	<circle fill="#F2B543" cx="32.4" cy="57.2" r="5.9"/>
	<circle fill="#F2B543" cx="74.5" cy="30" r="5.9"/>
	<circle fill="#F2B543" cx="55.2" cy="101.9" r="5.9"/>
	<circle fill="#F2B543" cx="50.3" cy="77.1" r="5.9"/>
	<circle fill="#F2B543" cx="103" cy="44.7" r="5.9"/>
	<circle fill="#F2B543" cx="95.7" cy="66.7" r="5.9"/>
	<circle fill="#F2B543" cx="111.3" cy="83" r="5.9"/>
	<circle fill="#F2B543" cx="85.1" cy="107.8" r="5.9"/>
	<circle fill="#F2B543" cx="33.8" cy="88.8" r="5.9"/>
	<circle fill="#F2B543" cx="50.3" cy="37.3" r="5.9"/>
</g>
<g>
	<g>
		<g id="vMxfdE.tif_2_">
			<g>
				<path fill="#FEFEFE" d="M200.2,95.4c-0.3,0-0.6,0-0.8,0c-0.2,0-0.3-0.1-0.4-0.3c-0.4-1.2-0.8-2.3-1.4-3.3
					c-1-1.9-2.2-3.6-3.7-5.2c-0.1-0.1-0.1-0.2-0.1-0.4c0.4-0.9,0.8-1.8,1.5-2.5c0.3-0.3,0.3-0.3,0.7-0.1c0.6,0.3,1.1,0.6,1.8,0.6
					c0.6,0,1-0.4,0.9-0.9c0-0.2-0.1-0.5-0.2-0.7c-0.7-1.2-1.7-2.1-3-2.6c-0.4-0.2-0.8-0.3-1.2-0.2c-0.5,0-0.7,0.3-0.7,0.8
					c0,0.3,0.1,0.5,0.2,0.7c0.2,0.5,0.5,0.9,0.9,1.2c0.1,0.1,0.1,0.1,0,0.2c-0.7,0.7-1.4,1.5-2.3,2c-0.1,0.1-0.3,0.1-0.4,0
					c-1.2-1-2.5-1.9-3.9-2.6c-1.6-0.8-3.2-1.5-5-2c-0.2-0.1-0.3-0.2-0.4-0.3c-0.3-0.8-0.4-1.7-0.3-2.6c0-0.1,0.1-0.2,0.2-0.2
					c0.3,0,0.6,0,0.9-0.1c0.5-0.1,1-0.2,1.3-0.6c0.4-0.3,0.4-0.7,0.1-1.1c-0.2-0.3-0.5-0.4-0.7-0.6c-1-0.5-2.1-0.6-3.2-0.6
					c-0.6,0-1.1,0.2-1.6,0.5c-0.6,0.4-0.6,1-0.1,1.5c0.5,0.4,1.1,0.6,1.7,0.8c0.2,0,0.2,0.1,0.2,0.3c-0.2,0.8-0.7,1.6-1.2,2.2
					c-0.1,0.1-0.2,0.1-0.3,0.1c-1.1-0.1-2.1-0.2-3.2-0.1c-2.5,0.1-5,0.5-7.3,1.4c-0.2,0.1-0.3,0-0.4-0.1c-0.8-0.6-1.4-1.4-1.9-2.3
					c-0.1-0.1,0-0.2,0.1-0.2c0.2-0.1,0.3-0.2,0.5-0.3c0.5-0.4,1-0.8,1.2-1.4c0.3-0.6,0-1.1-0.6-1.2c-0.4-0.1-0.8-0.1-1.1,0
					c-1.3,0.2-2.4,0.8-3.4,1.6c-0.4,0.4-0.8,0.8-0.9,1.3c-0.1,0.3,0,0.5,0.2,0.7c0.2,0.2,0.6,0.3,0.9,0.3c0.7,0,1.4-0.1,2-0.4
					c0.2-0.1,0.3,0,0.3,0.1c0.2,0.3,0.3,0.6,0.3,1c0,1.1-0.5,1.9-1.1,2.8c0,0-0.1,0.1-0.1,0.1c-1.8,1.1-3.4,2.4-4.9,3.9
					c-0.2,0.2-0.4,0.3-0.7,0.2c-1.1-0.2-2.2-0.6-3.1-1.2c-0.1-0.1-0.2-0.1-0.1-0.3c0.3-0.4,0.5-0.8,0.7-1.2c0.2-0.4,0.3-0.9,0.3-1.4
					c0-0.5-0.3-0.8-0.9-0.8c-0.3,0-0.6,0.1-0.8,0.2c-1.1,0.5-1.9,1.3-2.5,2.3c-0.4,0.6-0.7,1.2-0.8,2c-0.1,0.7,0.3,1.1,1,1
					c0.2,0,0.4-0.1,0.7-0.2c0.5-0.3,1-0.6,1.4-1c0.1-0.1,0.1-0.1,0.2,0c0.8,0.8,1.6,1.7,2.1,2.7c0.1,0.2,0.1,0.3,0,0.5
					c-1.4,2-2.4,4.2-3.1,6.6c-0.1,0.5-0.3,0.7-0.8,0.9c-0.9,0.4-1.9,0.7-2.9,0.9c-0.2,0-0.2,0-0.2-0.2c0-0.3,0-0.6-0.1-0.8
					c-0.1-0.5-0.3-1-0.6-1.3c-0.4-0.5-0.9-0.5-1.3-0.1c-0.3,0.3-0.5,0.6-0.6,1c-0.5,1.3-0.6,2.6-0.3,3.9c0.1,0.5,0.3,0.9,0.6,1.3
					c0.4,0.4,0.8,0.5,1.3,0.1c0.2-0.2,0.4-0.4,0.5-0.6c0.3-0.5,0.4-1.1,0.5-1.7c0-0.2,0.1-0.2,0.2-0.2c0.4,0,0.8,0,1.2,0.1
					c0.5,0.1,1,0.1,1.5,0.3c0.2,0.1,0.3,0.2,0.2,0.4c-0.1,1.3-0.1,2.6-0.1,4c0.1,0.9,0.2,1.8,0.4,2.6c0.2,1.1,0.5,2.2,0.9,3.3
					c0,0.1,0,0.1,0,0.2c-0.8,0.9-1.7,1.5-2.8,1.9c-0.1,0-0.2,0-0.2-0.1c-0.2-0.3-0.3-0.5-0.5-0.7c-0.4-0.5-0.8-0.9-1.4-1.2
					c-0.5-0.2-1,0-1.1,0.6c-0.1,0.3-0.1,0.6-0.1,1c0.1,1.2,0.6,2.2,1.3,3.2c0.4,0.5,0.8,1,1.4,1.3c0.7,0.3,1.2,0.1,1.4-0.7
					c0-0.1,0-0.2,0-0.2c0-0.7-0.1-1.3-0.4-2c0-0.1-0.1-0.2,0.1-0.3c1-0.4,2-0.7,3.1-0.9c0.1,0,0.2,0,0.3,0.2c0.3,0.6,0.6,1.2,1,1.8
					c1.3,2.1,2.9,4,4.8,5.6c0.4,0.3,0.4,0.3,0.3,0.8c-0.2,0.6-0.5,1.2-0.7,1.7c-0.1,0.1-0.1,0.1-0.3,0.1c-0.4-0.2-0.7-0.3-1.1-0.4
					c-0.5-0.1-1-0.3-1.5-0.1c-0.5,0.1-0.7,0.5-0.5,1c0.1,0.4,0.4,0.8,0.7,1.1c0.8,0.8,1.7,1.4,2.7,1.8c0.6,0.2,1.1,0.4,1.7,0.3
					c0.4,0,0.8-0.1,0.9-0.5c0.1-0.3,0-0.7-0.2-0.9c-0.4-0.6-0.9-1.1-1.4-1.5c-0.1-0.1-0.1-0.2-0.1-0.3c0.3-0.5,0.7-1.1,1.1-1.6
					c0.1-0.2,0.2-0.2,0.4-0.1c1,0.7,2.1,1.3,3.2,1.9c1.7,0.8,3.4,1.4,5.2,1.8c0.1,0,0.2,0.1,0.3,0.2c0.2,0.6,0.2,1.3,0.1,1.9
					c0,0.2-0.1,0.2-0.2,0.2c-0.4,0-0.7,0-1.1,0.1c-0.5,0.1-1,0.2-1.4,0.6c-0.4,0.3-0.4,0.7-0.1,1.1c0.2,0.3,0.5,0.4,0.8,0.6
					c0.6,0.3,1.3,0.4,2,0.5c1,0.1,2,0.1,3-0.3c0.4-0.2,0.7-0.4,0.7-0.8c0-0.4-0.3-0.7-0.6-0.9c-0.5-0.3-1-0.5-1.6-0.6
					c-0.2,0-0.2-0.1-0.2-0.3c0.2-0.6,0.3-1.1,0.5-1.7c0.1-0.2,0.2-0.2,0.4-0.2c2.3,0.2,4.6,0.1,6.9-0.4c1.3-0.3,2.6-0.7,3.9-1.2
					c0.1-0.1,0.2,0,0.3,0c0.5,0.5,0.9,1,1.3,1.6c0.1,0.1,0,0.2-0.1,0.3c-0.2,0.1-0.4,0.2-0.6,0.3c-0.5,0.3-1,0.7-1.3,1.3
					c-0.2,0.4-0.1,0.8,0.4,1c0.3,0.2,0.6,0.2,1,0.2c1.2,0,2.3-0.4,3.3-0.9c0.6-0.3,1-0.7,1.4-1.2c0.3-0.5,0.2-1-0.4-1.2
					c-0.2-0.1-0.4-0.1-0.6-0.1c-0.6-0.1-1.2,0-1.8,0.2c-0.1,0-0.2,0.1-0.3-0.1c-0.2-0.7-0.3-1.4-0.3-2.2c0-0.1,0-0.2,0.2-0.3
					c1-0.5,2-1.1,2.9-1.8c1-0.8,2-1.6,2.9-2.5c0.1-0.1,0.2-0.2,0.3-0.2c1,0.2,1.9,0.5,2.8,1c0.1,0.1,0.2,0.1,0.1,0.3
					c-0.1,0.1-0.2,0.3-0.3,0.4c-0.3,0.4-0.5,0.9-0.5,1.4c0,0.6,0.3,0.9,0.9,0.9c0.4,0,0.7-0.1,1.1-0.3c1.1-0.5,1.9-1.4,2.5-2.4
					c0.2-0.4,0.4-0.8,0.4-1.3c0-0.5-0.3-0.8-0.8-0.8c-0.4,0-0.7,0.1-1,0.3c-0.5,0.2-0.9,0.5-1.3,0.9c-0.1,0.1-0.1,0.1-0.2,0
					c-0.8-0.6-1.4-1.2-1.9-2.1c-0.1-0.1-0.1-0.2,0-0.4c0.5-0.7,1-1.4,1.4-2.1c0.7-1.1,1.3-2.3,1.7-3.6c0-0.1,0.1-0.2,0.2-0.2
					c0.9,0.1,1.8,0.1,2.7,0.3c0.1,0,0.2,0.1,0.1,0.2c0,0.2-0.1,0.4-0.1,0.5c0,0.5,0,1.1,0.2,1.6c0.2,0.4,0.6,0.5,1,0.4
					c0.3-0.1,0.5-0.3,0.7-0.5c1-1.2,1.4-2.6,1.4-4.1c0-0.3-0.1-0.5-0.2-0.7c-0.2-0.4-0.6-0.6-1.1-0.4c-0.2,0.1-0.4,0.2-0.5,0.4
					c-0.4,0.4-0.7,0.9-1,1.5c-0.2,0.4-0.2,0.4-0.6,0.2c-0.7-0.3-1.4-0.7-2-1.3c-0.1-0.1-0.2-0.2-0.1-0.4c0.3-1.4,0.5-2.8,0.6-4.2
					c0.1-1.9,0-3.8-0.4-5.7c0-0.2,0-0.3,0.2-0.4c0.7-0.4,1.5-0.6,2.2-0.8c0.5-0.1,0.5-0.1,0.6,0.3c0,0.1,0.1,0.2,0.1,0.2
					c0.3,0.5,0.6,1,1.1,1.3c0.5,0.3,1,0.2,1.3-0.4c0.2-0.3,0.2-0.7,0.2-1.1c0-0.9-0.2-1.8-0.5-2.6c-0.3-0.6-0.6-1.1-1.1-1.5
					c-0.6-0.5-1.2-0.3-1.4,0.4c-0.2,0.7-0.2,1.3-0.1,2c0,0.2,0,0.2-0.2,0.3C201.4,95.4,200.8,95.4,200.2,95.4z"/>
				<path fill="#F2B543" d="M200.2,95.4c0.6,0,1.2-0.1,1.8-0.2c0.2,0,0.2-0.1,0.2-0.3c-0.1-0.7-0.2-1.4,0.1-2
					c0.3-0.7,0.8-0.9,1.4-0.4c0.5,0.4,0.8,0.9,1.1,1.5c0.4,0.8,0.6,1.7,0.5,2.6c0,0.4-0.1,0.7-0.2,1.1c-0.3,0.6-0.8,0.7-1.3,0.4
					c-0.5-0.3-0.8-0.8-1.1-1.3c0-0.1-0.1-0.2-0.1-0.2c-0.2-0.4-0.2-0.4-0.6-0.3c-0.8,0.2-1.5,0.4-2.2,0.8c-0.2,0.1-0.2,0.2-0.2,0.4
					c0.4,1.9,0.5,3.8,0.4,5.7c-0.1,1.4-0.3,2.8-0.6,4.2c0,0.2,0,0.3,0.1,0.4c0.6,0.6,1.2,1,2,1.3c0.4,0.2,0.4,0.2,0.6-0.2
					c0.2-0.6,0.5-1.1,1-1.5c0.2-0.2,0.3-0.3,0.5-0.4c0.4-0.2,0.8-0.1,1.1,0.4c0.1,0.2,0.2,0.5,0.2,0.7c0.1,1.6-0.4,2.9-1.4,4.1
					c-0.2,0.2-0.4,0.4-0.7,0.5c-0.4,0.2-0.8,0-1-0.4c-0.3-0.5-0.3-1-0.2-1.6c0-0.2,0-0.4,0.1-0.5c0-0.1,0-0.2-0.1-0.2
					c-0.9-0.2-1.8-0.3-2.7-0.3c-0.2,0-0.2,0.1-0.2,0.2c-0.5,1.2-1,2.4-1.7,3.6c-0.4,0.7-0.9,1.4-1.4,2.1c-0.1,0.1-0.1,0.2,0,0.4
					c0.5,0.8,1.2,1.5,1.9,2.1c0.1,0.1,0.2,0,0.2,0c0.4-0.4,0.8-0.7,1.3-0.9c0.3-0.1,0.7-0.3,1-0.3c0.5,0,0.8,0.3,0.8,0.8
					c0,0.5-0.2,0.9-0.4,1.3c-0.6,1-1.4,1.9-2.5,2.4c-0.3,0.2-0.7,0.3-1.1,0.3c-0.5,0-0.9-0.3-0.9-0.9c0-0.5,0.2-1,0.5-1.4
					c0.1-0.1,0.2-0.3,0.3-0.4c0.1-0.1,0.1-0.2-0.1-0.3c-0.9-0.5-1.8-0.8-2.8-1c-0.2,0-0.2,0.1-0.3,0.2c-0.9,0.9-1.8,1.7-2.9,2.5
					c-0.9,0.7-1.9,1.3-2.9,1.8c-0.1,0.1-0.2,0.2-0.2,0.3c0,0.7,0.2,1.5,0.3,2.2c0,0.2,0.1,0.2,0.3,0.1c0.6-0.2,1.2-0.3,1.8-0.2
					c0.2,0,0.4,0.1,0.6,0.1c0.6,0.2,0.7,0.7,0.4,1.2c-0.3,0.5-0.8,0.9-1.4,1.2c-1,0.6-2.1,0.9-3.3,0.9c-0.3,0-0.7,0-1-0.2
					c-0.4-0.2-0.6-0.6-0.4-1c0.3-0.6,0.8-1,1.3-1.3c0.2-0.1,0.4-0.2,0.6-0.3c0.1-0.1,0.2-0.1,0.1-0.3c-0.3-0.6-0.7-1.2-1.3-1.6
					c-0.1-0.1-0.2-0.1-0.3,0c-1.3,0.5-2.5,0.9-3.9,1.2c-2.3,0.5-4.6,0.6-6.9,0.4c-0.2,0-0.3,0-0.4,0.2c-0.2,0.6-0.4,1.1-0.5,1.7
					c0,0.2,0,0.2,0.2,0.3c0.6,0.1,1.1,0.3,1.6,0.6c0.3,0.2,0.6,0.5,0.6,0.9c0,0.4-0.4,0.7-0.7,0.8c-0.9,0.4-1.9,0.4-3,0.3
					c-0.7-0.1-1.4-0.2-2-0.5c-0.3-0.1-0.6-0.3-0.8-0.6c-0.3-0.4-0.3-0.8,0.1-1.1c0.4-0.4,0.9-0.5,1.4-0.6c0.4-0.1,0.7-0.1,1.1-0.1
					c0.2,0,0.2-0.1,0.2-0.2c0-0.6,0.1-1.3-0.1-1.9c0-0.1-0.1-0.2-0.3-0.2c-1.8-0.4-3.6-1-5.2-1.8c-1.1-0.5-2.2-1.1-3.2-1.9
					c-0.2-0.1-0.3-0.1-0.4,0.1c-0.4,0.5-0.7,1-1.1,1.6c-0.1,0.1-0.1,0.2,0.1,0.3c0.6,0.4,1.1,0.9,1.4,1.5c0.2,0.3,0.3,0.6,0.2,0.9
					c-0.2,0.4-0.5,0.5-0.9,0.5c-0.6,0-1.2-0.1-1.7-0.3c-1-0.4-1.9-1-2.7-1.8c-0.3-0.3-0.5-0.7-0.7-1.1c-0.1-0.5,0.1-0.8,0.5-1
					c0.5-0.2,1,0,1.5,0.1c0.4,0.1,0.8,0.3,1.1,0.4c0.1,0.1,0.2,0.1,0.3-0.1c0.3-0.6,0.6-1.1,0.7-1.7c0.1-0.5,0.1-0.5-0.3-0.8
					c-1.9-1.6-3.5-3.5-4.8-5.6c-0.3-0.6-0.7-1.2-1-1.8c-0.1-0.1-0.1-0.2-0.3-0.2c-1.1,0.1-2.1,0.5-3.1,0.9c-0.2,0.1-0.1,0.1-0.1,0.3
					c0.2,0.6,0.4,1.3,0.4,2c0,0.1,0,0.2,0,0.2c-0.1,0.8-0.7,1-1.4,0.7c-0.6-0.3-1-0.8-1.4-1.3c-0.7-1-1.2-2-1.3-3.2
					c0-0.3,0-0.6,0.1-1c0.2-0.5,0.6-0.7,1.1-0.6c0.6,0.2,1,0.7,1.4,1.2c0.2,0.2,0.4,0.5,0.5,0.7c0.1,0.1,0.1,0.1,0.2,0.1
					c1.1-0.4,2-1,2.8-1.9c0.1-0.1,0.1-0.1,0-0.2c-0.4-1.1-0.7-2.2-0.9-3.3c-0.2-0.9-0.3-1.7-0.4-2.6c-0.1-1.3-0.1-2.7,0.1-4
					c0-0.2-0.1-0.3-0.2-0.4c-0.5-0.2-1-0.3-1.5-0.3c-0.4,0-0.8-0.1-1.2-0.1c-0.2,0-0.2,0-0.2,0.2c-0.1,0.6-0.2,1.2-0.5,1.7
					c-0.1,0.2-0.3,0.5-0.5,0.6c-0.4,0.4-0.9,0.4-1.3-0.1c-0.3-0.4-0.5-0.8-0.6-1.3c-0.3-1.3-0.2-2.7,0.3-3.9c0.1-0.4,0.3-0.7,0.6-1
					c0.4-0.4,1-0.4,1.3,0.1c0.3,0.4,0.5,0.9,0.6,1.3c0.1,0.3,0.1,0.6,0.1,0.8c0,0.2,0.1,0.2,0.2,0.2c1-0.1,2-0.5,2.9-0.9
					c0.5-0.2,0.7-0.5,0.8-0.9c0.6-2.4,1.7-4.6,3.1-6.6c0.1-0.2,0.1-0.3,0-0.5c-0.6-1-1.3-1.9-2.1-2.7c-0.1-0.1-0.2-0.1-0.2,0
					c-0.4,0.4-0.9,0.8-1.4,1c-0.2,0.1-0.4,0.2-0.7,0.2c-0.7,0.1-1.1-0.3-1-1c0.1-0.7,0.4-1.4,0.8-2c0.6-1,1.4-1.8,2.5-2.3
					c0.3-0.1,0.5-0.2,0.8-0.2c0.5,0,0.8,0.3,0.9,0.8c0,0.5-0.1,1-0.3,1.4c-0.2,0.4-0.4,0.8-0.7,1.2c-0.1,0.1-0.1,0.2,0.1,0.3
					c1,0.6,2,1,3.1,1.2c0.3,0,0.5,0,0.7-0.2c1.4-1.5,3.1-2.8,4.9-3.9c0,0,0.1,0,0.1-0.1c0.6-0.8,1.1-1.7,1.1-2.8
					c0-0.3-0.1-0.7-0.3-1c-0.1-0.1-0.2-0.2-0.3-0.1c-0.6,0.2-1.3,0.4-2,0.4c-0.3,0-0.6-0.1-0.9-0.3c-0.2-0.2-0.3-0.4-0.2-0.7
					c0.1-0.6,0.5-1,0.9-1.3c1-0.9,2.1-1.4,3.4-1.6c0.4-0.1,0.8-0.1,1.1,0c0.6,0.1,0.9,0.6,0.6,1.2c-0.2,0.6-0.7,1-1.2,1.4
					c-0.2,0.1-0.3,0.2-0.5,0.3c-0.1,0.1-0.1,0.1-0.1,0.2c0.4,0.9,1,1.7,1.9,2.3c0.1,0.1,0.3,0.1,0.4,0.1c2.4-0.9,4.8-1.3,7.3-1.4
					c1.1,0,2.1,0,3.2,0.1c0.1,0,0.2,0,0.3-0.1c0.6-0.6,1-1.4,1.2-2.2c0-0.2,0-0.3-0.2-0.3c-0.6-0.1-1.2-0.4-1.7-0.8
					c-0.5-0.5-0.5-1.1,0.1-1.5c0.5-0.3,1-0.4,1.6-0.5c1.1-0.1,2.2,0,3.2,0.6c0.3,0.1,0.5,0.3,0.7,0.6c0.3,0.4,0.3,0.8-0.1,1.1
					c-0.4,0.3-0.9,0.5-1.3,0.6c-0.3,0.1-0.6,0.1-0.9,0.1c-0.1,0-0.2,0.1-0.2,0.2c0,0.9,0,1.7,0.3,2.6c0.1,0.2,0.2,0.3,0.4,0.3
					c1.7,0.5,3.4,1.1,5,2c1.4,0.7,2.7,1.6,3.9,2.6c0.1,0.1,0.2,0.1,0.4,0c0.9-0.5,1.6-1.2,2.3-2c0.1-0.1,0-0.2,0-0.2
					c-0.3-0.4-0.7-0.8-0.9-1.2c-0.1-0.2-0.2-0.5-0.2-0.7c0-0.5,0.3-0.8,0.7-0.8c0.4,0,0.8,0,1.2,0.2c1.3,0.5,2.3,1.4,3,2.6
					c0.1,0.2,0.2,0.4,0.2,0.7c0.1,0.5-0.3,0.9-0.9,0.9c-0.7,0-1.2-0.3-1.8-0.6c-0.4-0.2-0.4-0.2-0.7,0.1c-0.6,0.8-1.1,1.6-1.5,2.5
					c-0.1,0.1-0.1,0.2,0.1,0.4c1.5,1.6,2.7,3.3,3.7,5.2c0.6,1.1,1,2.2,1.4,3.3c0.1,0.2,0.2,0.3,0.4,0.3
					C199.7,95.4,200,95.4,200.2,95.4z M195.6,117.4C195.6,117.4,195.6,117.4,195.6,117.4C195.6,117.4,195.6,117.4,195.6,117.4
					C195.6,117.3,195.6,117.3,195.6,117.4c-0.4-0.5-0.7-1-0.9-1.5c0-0.1-0.1-0.2,0-0.3c0.2-0.2,0.3-0.4,0.4-0.6
					c0.6-0.8,1.2-1.7,1.7-2.7c0.5-1,1-2,1.4-3.1c0-0.1,0.1-0.2,0.3-0.2c0.1,0,0.2,0,0.4,0c0.4,0,0.8,0.1,1.3,0.1
					c-0.1-0.1-0.1-0.1-0.2-0.2c-0.4-0.3-0.8-0.6-1.1-1c-0.1-0.1-0.1-0.2-0.1-0.3c0.1-0.3,0.1-0.5,0.2-0.8c0.1-0.7,0.3-1.4,0.4-2.1
					c0.1-0.6,0.1-1.3,0.2-1.9c0-0.8,0-1.5,0-2.3c0-0.3,0-0.5-0.1-0.8c-0.1-0.9-0.3-1.8-0.5-2.7c0-0.1,0-0.2,0.1-0.2
					c0.4-0.2,0.7-0.4,1.1-0.6c0-0.1-0.1-0.1-0.1-0.1c-0.3,0-0.7-0.1-1-0.1c-0.2,0-0.4-0.1-0.5-0.4c-0.1-0.5-0.3-1-0.5-1.5
					c-0.2-0.7-0.5-1.3-0.9-1.9c-0.1-0.3-0.2-0.6-0.5-0.8c0-0.1-0.1-0.2-0.1-0.4c-0.9-1.6-2-3.1-3.3-4.4c-0.1-0.1-0.1-0.2-0.1-0.4
					c0.3-0.6,0.5-1.3,0.9-1.8c0.1-0.1,0.1-0.2,0.2-0.3c-0.1,0-0.2,0-0.2,0.1c-0.5,0.5-1.1,0.9-1.7,1.2c-0.1,0.1-0.3,0.1-0.4,0
					c-0.2-0.2-0.4-0.3-0.6-0.5c-1.8-1.4-3.7-2.5-5.8-3.4c-0.9-0.4-1.9-0.7-2.9-0.9c-0.2,0-0.3-0.1-0.3-0.3c-0.3-0.6-0.4-1.2-0.5-1.9
					c0-0.2,0-0.4-0.1-0.6c0,0-0.1,0.1-0.1,0.1c-0.3,0.8-0.8,1.4-1.4,2c-0.1,0.1-0.2,0.1-0.3,0.1c-0.7-0.1-1.5-0.2-2.2-0.2
					c-0.8,0-1.6,0-2.4,0.1c-1.3,0.1-2.7,0.3-4,0.7c-0.8,0.2-1.6,0.5-2.3,0.7c-0.1,0-0.2,0.1-0.3,0c-0.6-0.4-1.2-0.8-1.6-1.4
					c-0.1-0.1-0.1-0.2-0.3-0.3c0,0.3,0,0.6-0.1,0.9c-0.2,0.7-0.5,1.4-1,2c-0.2,0.3-0.4,0.5-0.7,0.6c-1.1,0.6-2.1,1.4-3,2.2
					c-0.6,0.6-1.3,1.2-1.8,1.8c-0.1,0.1-0.2,0.1-0.3,0.1c-0.7,0-1.4-0.2-2.1-0.4c-0.2-0.1-0.4-0.1-0.6-0.2c0,0.1,0,0.1,0.1,0.2
					c0.5,0.6,0.9,1.3,1.3,2c0.1,0.2,0.1,0.3,0,0.4c-0.7,0.9-1.3,1.9-1.8,3c-0.7,1.4-1.3,2.9-1.6,4.5c0,0.1,0,0.2-0.1,0.2
					c-0.8,0.4-1.6,0.8-2.5,1c-0.2,0.1-0.4,0.1-0.6,0.2c0.3,0.1,0.5,0.1,0.8,0.1c0.7,0.1,1.3,0.3,1.9,0.7c0.1,0.1,0.1,0.1,0.1,0.3
					c-0.1,0.7-0.1,1.5-0.2,2.2c0,0.9,0,1.8,0.1,2.7c0.1,1.2,0.4,2.4,0.6,3.6c0,0.1,0,0.1,0.1,0.2c0,0.1,0,0.2,0,0.2
					c0.1,0.5,0.3,1,0.5,1.6c0,0.1,0,0.2,0,0.3c-0.2,0.2-0.4,0.4-0.6,0.6c-0.2,0.2-0.4,0.3-0.6,0.5c0,0,0.1,0,0.1,0
					c0.5-0.1,0.9-0.1,1.4-0.1c0.1,0,0.2,0,0.3,0.2c0.3,0.5,0.6,1.1,0.9,1.6c0.4,0.8,0.9,1.5,1.5,2.2c0.5,0.7,1,1.3,1.6,1.9
					c0.7,0.8,1.5,1.5,2.3,2.1c0.1,0.1,0.2,0.2,0.2,0.3c0,0.3,0,0.6-0.1,0.8c0.1,0,0.1,0,0.1-0.1c0.1-0.1,0.2-0.1,0.2-0.2
					c0.1-0.1,0.1-0.2,0.2-0.3c0.2-0.1,0.2,0.1,0.3,0.2c0.9,0.6,1.9,1.2,2.9,1.7c0.8,0.4,1.5,0.7,2.3,1c0.6,0.2,1.2,0.4,1.8,0.6
					c0.6,0.2,1.2,0.3,1.8,0.4c0.2,0,0.5,0,0.6,0.3c0.2,0.6,0.3,1.2,0.3,1.8c0,0.2,0,0.4,0,0.6c0-0.2,0.1-0.4,0.2-0.6
					c0.1-0.5,0.3-1,0.6-1.5c0.2-0.3,0.3-0.4,0.6-0.3c0.5,0.1,1,0.1,1.5,0.1c1.1,0,2.2,0,3.4-0.1c0.6-0.1,1.1-0.1,1.7-0.2
					c0.3-0.1,0.7-0.1,1-0.2c0.7-0.2,1.4-0.3,2.1-0.6c0.5-0.2,1-0.4,1.5-0.6c0.1-0.1,0.3,0,0.4,0.1c0.3,0.2,0.6,0.5,0.8,0.8
					c0.1,0.1,0.2,0.2,0.3,0.3c-0.2-0.5-0.1-1.1-0.1-1.6c0-0.1,0-0.2,0.1-0.2c0.9-0.4,1.7-0.9,2.5-1.5c0.8-0.5,1.6-1.1,2.3-1.8
					c0.5-0.5,1-1,1.5-1.5c0.1-0.1,0.2-0.1,0.4-0.1c0.2,0,0.4,0.1,0.6,0.1C194.8,117.1,195.2,117.3,195.6,117.4z M158.8,121.9
					C158.8,121.9,158.7,121.9,158.8,121.9c-0.6,0-0.8,0.3-0.6,0.8c0.3,0.5,0.7,0.9,1.1,1.2c0.8,0.6,1.6,1.1,2.6,1.3
					c0.3,0.1,0.7,0.2,1,0.1c0.4-0.1,0.4-0.4,0.3-0.7c-0.3-0.6-0.8-1-1.3-1.3c-0.5-0.4-1.1-0.7-1.7-1
					C159.8,122.1,159.3,121.9,158.8,121.9z M149.2,111.2c0,0.4,0.1,0.8,0.2,1.2c0.2,0.7,0.6,1.3,1,1.9c0.3,0.4,0.7,0.9,1.2,1.1
					c0.4,0.2,0.7,0,0.7-0.4c0-0.4,0-0.8-0.1-1.2c-0.3-0.8-0.6-1.6-1.2-2.3c-0.3-0.4-0.6-0.8-1.1-1c-0.4-0.2-0.7,0-0.7,0.4
					C149.2,111,149.2,111.1,149.2,111.2z M190,125c-0.3,0-0.6,0-0.9,0.1c-0.6,0.1-1.2,0.3-1.8,0.6c-0.6,0.3-1.1,0.6-1.5,1.1
					c-0.2,0.2-0.3,0.4-0.2,0.6c0.1,0.2,0.3,0.3,0.5,0.3c0.7,0.1,1.3,0,2-0.2c0.8-0.2,1.6-0.6,2.3-1.2c0.2-0.2,0.4-0.3,0.5-0.6
					c0.1-0.2,0.1-0.4-0.2-0.6C190.5,125,190.3,125,190,125z M173.4,129.4c0.4,0,0.8-0.1,1.2-0.1c0.3,0,0.7-0.1,0.9-0.3
					c0.4-0.3,0.2-0.6,0-0.7c-0.3-0.2-0.6-0.3-0.9-0.4c-1.1-0.3-2.2-0.4-3.4-0.3c-0.4,0-0.8,0.1-1.1,0.4c-0.2,0.1-0.2,0.4-0.1,0.6
					c0.2,0.2,0.4,0.3,0.6,0.4C171.5,129.2,172.4,129.3,173.4,129.4z M200,117.2c-0.3,0-0.5,0.1-0.7,0.2c-0.9,0.5-1.6,1.1-2.1,2
					c-0.2,0.4-0.4,0.7-0.3,1.2c0,0.3,0.2,0.4,0.5,0.5c0.6,0.1,1.1-0.3,1.5-0.6c0.4-0.3,0.8-0.6,1.1-1c0.4-0.5,0.7-0.9,0.8-1.5
					C200.6,117.4,200.4,117.2,200,117.2z"/>
				<path fill="#F75D1D" d="M158.8,121.9c0.5,0,1,0.2,1.5,0.4c0.6,0.3,1.2,0.6,1.7,1c0.5,0.4,1,0.8,1.3,1.3c0.1,0.3,0.1,0.6-0.3,0.7
					c-0.4,0.1-0.7,0-1-0.1c-1-0.2-1.8-0.7-2.6-1.3c-0.4-0.3-0.9-0.7-1.1-1.2C158,122.2,158.1,121.9,158.8,121.9
					C158.7,121.9,158.8,121.9,158.8,121.9z"/>
				<path fill="#F75D1D" d="M149.2,111.2c0-0.1,0-0.2,0-0.3c0-0.4,0.3-0.6,0.7-0.4c0.5,0.2,0.8,0.6,1.1,1c0.5,0.7,0.9,1.5,1.2,2.3
					c0.1,0.4,0.2,0.8,0.1,1.2c0,0.4-0.3,0.6-0.7,0.4c-0.5-0.2-0.9-0.6-1.2-1.1c-0.4-0.6-0.7-1.2-1-1.9
					C149.3,112,149.2,111.6,149.2,111.2z"/>
				<path fill="#F75D1D" d="M190,125c0.3,0,0.5,0,0.7,0.1c0.3,0.2,0.3,0.3,0.2,0.6c-0.1,0.2-0.3,0.4-0.5,0.6
					c-0.7,0.5-1.5,0.9-2.3,1.2c-0.6,0.2-1.3,0.3-2,0.2c-0.2,0-0.4-0.1-0.5-0.3c-0.1-0.2,0-0.4,0.2-0.6c0.4-0.5,1-0.8,1.5-1.1
					c0.6-0.3,1.1-0.5,1.8-0.6C189.4,125.1,189.7,125,190,125z"/>
				<path fill="#F75D1D" d="M173.4,129.4c-0.9-0.1-1.9-0.2-2.8-0.5c-0.2-0.1-0.4-0.2-0.6-0.4c-0.2-0.1-0.1-0.4,0.1-0.6
					c0.3-0.3,0.7-0.4,1.1-0.4c1.1-0.1,2.3,0,3.4,0.3c0.3,0.1,0.6,0.2,0.9,0.4c0.2,0.2,0.4,0.5,0,0.7c-0.3,0.2-0.6,0.3-0.9,0.3
					C174.1,129.3,173.7,129.4,173.4,129.4z"/>
				<path fill="#F75D1D" d="M200,117.2c0.5,0,0.7,0.2,0.6,0.7c-0.1,0.6-0.4,1.1-0.8,1.5c-0.3,0.4-0.7,0.7-1.1,1
					c-0.5,0.3-0.9,0.6-1.5,0.6c-0.3,0-0.4-0.2-0.5-0.5c0-0.4,0.1-0.8,0.3-1.2c0.5-0.9,1.2-1.5,2.1-2
					C199.5,117.3,199.7,117.2,200,117.2z"/>
				<path fill="#7FB272" d="M195.6,117.4C195.6,117.4,195.6,117.4,195.6,117.4C195.6,117.4,195.6,117.4,195.6,117.4
					C195.6,117.4,195.6,117.4,195.6,117.4z"/>
			</g>
		</g>
		<path fill="#F75D1D" d="M199.9,109c-0.4-0.3-0.8-0.6-1.1-1c-0.1-0.1-0.1-0.2-0.1-0.3c0.1-0.3,0.1-0.5,0.2-0.8
			c0.1-0.7,0.3-1.4,0.4-2.1c0.1-0.6,0.1-1.3,0.2-1.9c0-0.8,0-1.5,0-2.3c0-0.3,0-0.5-0.1-0.8c-0.1-0.9-0.3-1.8-0.5-2.7
			c0-0.1,0-0.2,0.1-0.2c0.4-0.2,0.7-0.4,1.1-0.6c0-0.1-0.1-0.1-0.1-0.1c-0.3,0-0.7-0.1-1-0.1c-0.2,0-0.4-0.1-0.5-0.4
			c-0.1-0.5-0.3-1-0.5-1.5c-0.2-0.7-0.5-1.3-0.9-1.9c-0.1-0.3-0.2-0.6-0.5-0.8c0-0.1-0.1-0.2-0.1-0.4c-0.9-1.6-2-3.1-3.3-4.4
			c-0.1-0.1-0.1-0.2-0.1-0.4c0.3-0.6,0.5-1.3,0.9-1.8c0.1-0.1,0.1-0.2,0.2-0.3c-0.1,0-0.2,0-0.2,0.1c-0.5,0.5-1.1,0.9-1.7,1.2
			c-0.1,0.1-0.3,0.1-0.4,0c-0.2-0.2-0.4-0.3-0.6-0.5c-1.8-1.4-3.7-2.5-5.8-3.4c-0.9-0.4-1.9-0.7-2.9-0.9c-0.2,0-0.3-0.1-0.3-0.3
			c-0.3-0.6-0.4-1.2-0.5-1.9c0-0.2,0-0.4-0.1-0.6c0,0-0.1,0.1-0.1,0.1c-0.3,0.8-0.8,1.4-1.4,2c-0.1,0.1-0.2,0.1-0.3,0.1
			c-0.7-0.1-1.5-0.2-2.2-0.2c-0.8,0-1.6,0-2.4,0.1c-1.3,0.1-2.7,0.3-4,0.7c-0.8,0.2-1.6,0.5-2.3,0.7c-0.1,0-0.2,0.1-0.3,0
			c-0.6-0.4-1.2-0.8-1.6-1.4c-0.1-0.1-0.1-0.2-0.3-0.3c0,0.3,0,0.6-0.1,0.9c-0.2,0.7-0.5,1.4-1,2c-0.2,0.3-0.4,0.5-0.7,0.6
			c-1.1,0.6-2.1,1.4-3,2.2c-0.6,0.6-1.3,1.2-1.8,1.8c-0.1,0.1-0.2,0.1-0.3,0.1c-0.7,0-1.4-0.2-2.1-0.4c-0.2-0.1-0.4-0.1-0.6-0.2
			c0,0.1,0,0.1,0.1,0.2c0.5,0.6,0.9,1.3,1.3,2c0.1,0.2,0.1,0.3,0,0.4c-0.7,0.9-1.3,1.9-1.8,3c-0.7,1.4-1.3,2.9-1.6,4.5
			c0,0.1,0,0.2-0.1,0.2c-0.8,0.4-1.6,0.8-2.5,1c-0.2,0.1-0.4,0.1-0.6,0.2c0.3,0.1,0.5,0.1,0.8,0.1c0.7,0.1,1.3,0.3,1.9,0.7
			c0.1,0.1,0.1,0.1,0.1,0.3c-0.1,0.7-0.1,1.5-0.2,2.2c0,0.9,0,1.8,0.1,2.7c0.1,1.2,0.4,2.4,0.6,3.6c0,0.1,0,0.1,0.1,0.2
			c0,0.1,0,0.2,0,0.2c0.1,0.5,0.3,1,0.5,1.6c0,0.1,0,0.2,0,0.3c-0.2,0.2-0.4,0.4-0.6,0.6c-0.2,0.2-0.4,0.3-0.6,0.5c0,0,0.1,0,0.1,0
			c0.5-0.1,0.9-0.1,1.4-0.1c0.1,0,0.2,0,0.3,0.2c0.3,0.5,0.6,1.1,0.9,1.6c0.4,0.8,0.9,1.5,1.5,2.2c0.5,0.7,1,1.3,1.6,1.9
			c0.7,0.8,1.5,1.5,2.3,2.1c0.1,0.1,0.2,0.2,0.2,0.3c0,0.3,0,0.6-0.1,0.8c0.1,0,0.1,0,0.1-0.1c0.1-0.1,0.2-0.1,0.2-0.2
			c0.1-0.1,0.1-0.2,0.2-0.3c0.2-0.1,0.2,0.1,0.3,0.2c0.9,0.6,1.9,1.2,2.9,1.7c0.8,0.4,1.5,0.7,2.3,1c0.6,0.2,1.2,0.4,1.8,0.6
			c0.6,0.2,1.2,0.3,1.8,0.4c0.2,0,0.5,0,0.6,0.3c0.2,0.6,0.3,1.2,0.3,1.8c0,0.2,0,0.4,0,0.6c0-0.2,0.1-0.4,0.2-0.6
			c0.1-0.5,0.3-1,0.6-1.5c0.2-0.3,0.3-0.4,0.6-0.3c0.5,0.1,1,0.1,1.5,0.1c1.1,0,2.2,0,3.4-0.1c0.6-0.1,1.1-0.1,1.7-0.2
			c0.3-0.1,0.7-0.1,1-0.2c0.7-0.2,1.4-0.3,2.1-0.6c0.5-0.2,1-0.4,1.5-0.6c0.1-0.1,0.3,0,0.4,0.1c0.3,0.2,0.6,0.5,0.8,0.8
			c0.1,0.1,0.2,0.2,0.3,0.3c-0.2-0.5-0.1-1.1-0.1-1.6c0-0.1,0-0.2,0.1-0.2c0.9-0.4,1.7-0.9,2.5-1.5c0.8-0.5,1.6-1.1,2.3-1.8
			c0.5-0.5,1-1,1.5-1.5c0.1-0.1,0.2-0.1,0.4-0.1c0.2,0,0.4,0.1,0.6,0.1c0.4,0.1,0.8,0.2,1.2,0.3l0,0c0,0,0-0.1,0-0.1
			c-0.4-0.4-0.7-0.9-0.9-1.4c0-0.1-0.1-0.2,0-0.3c0.2-0.2,0.3-0.4,0.4-0.6c0.6-0.8,1.2-1.7,1.7-2.7c0.5-1,1-2,1.4-3.1
			c0-0.1,0.1-0.2,0.3-0.2c0.1,0,0.2,0,0.4,0c0.4,0,0.8,0.1,1.3,0.1C200,109,200,109,199.9,109z"/>
	</g>
	<circle fill="#F2B543" cx="180.8" cy="109.2" r="2.4"/>
	<circle fill="#F2B543" cx="176" cy="99.3" r="2.4"/>
	<circle fill="#F2B543" cx="160.9" cy="97.4" r="2.4"/>
	<circle fill="#F2B543" cx="178.1" cy="86.3" r="2.4"/>
	<circle fill="#F2B543" cx="170.3" cy="115.7" r="2.4"/>
	<circle fill="#F2B543" cx="168.2" cy="105.6" r="2.4"/>
	<circle fill="#F2B543" cx="189.8" cy="92.3" r="2.4"/>
	<circle fill="#F2B543" cx="186.8" cy="101.3" r="2.4"/>
	<circle fill="#F2B543" cx="193.2" cy="108" r="2.4"/>
	<circle fill="#F2B543" cx="182.5" cy="118.1" r="2.4"/>
	<circle fill="#F2B543" cx="161.5" cy="110.4" r="2.4"/>
	<circle fill="#F2B543" cx="168.2" cy="89.3" r="2.4"/>
</g>
<g>
</g>
<g>
</g>
<g>
</g>
<g>
</g>
<g>
</g>
<g>
</g>
<g>
</g>
<g>
</g>
<g>
</g>
<g>
</g>
<g>
</g>
<g>
</g>
<g>
</g>
<g>
</g>
<g>
</g>
</svg>
