<?xml version="1.0" encoding="utf-8"?>
<!-- Generator: Adobe Illustrator 24.0.3, SVG Export Plug-In . SVG Version: 6.00 Build 0)  -->
<svg version="1.1" id="Layer_1" xmlns="http://www.w3.org/2000/svg" xmlns:xlink="http://www.w3.org/1999/xlink" x="0px" y="0px"
	 viewBox="0 0 259.9 215" enable-background="new 0 0 259.9 215" xml:space="preserve">
<g>
	<g>
		<path fill="#1E2A3B" d="M202.7,68.9c-24.4-1.5-40-11.8-40-11.8c-6.7-3.9-20.2-5.4-20.2-5.4l-30.7,15c-0.6-5.3-1-8.6-1-8.6L59.4,92
			c0,0,0.5,1.5,1.5,4.1c0.6,4-0.5,10.7-9.5,19.5C36.5,130.2,0,145.9,0,145.9s38.2,20.5,95.6,15.9c3.6,0.1,13.5-0.7,23.8-5.6
			c27-13,22.7-4.4,53.7-10.2c31-5.8,31.3-31.7,41.4-48.5c10.1-16.8,23.1-17.9,32.9-20.9c9.8-3.1,12.4-15.9,12.4-15.9
			S227.1,70.4,202.7,68.9z"/>
		<path fill="#F75D1D" d="M71.9,127c0,0-7.4-6.6-16.9-2.9c-9.5,3.7-10.4,11.4-6.6,19.9c3.9,8.5,37.9,30.9,37.9,30.9l6.6-8.5
			L71.9,127z"/>
		<path fill="#28384F" d="M78.3,138.9c0,0-4.1,0.9-12.5,7.8c-8.4,6.9-9.6,13.7-9.6,13.7l24,14.5c0,0-10.5,4.1-8.9,8.9
			c1.7,4.7,19,2.9,24.7-2.4c5.7-5.3,8.1-11.7,8.1-11.7L78.3,138.9z"/>
		<path fill="#28384F" d="M186.5,145.9c0,0-2.1,1.6-6.2,7.2c-4.1,5.6-3.7,9.7-3.7,9.7s8.6,1.5,9.9-3.5
			C187.7,154.3,186.5,145.9,186.5,145.9z"/>
		<polygon fill="#C24917" points="103,146.7 85.8,146.7 66.7,124.1 97.6,122.2 		"/>
		<path fill="#F75D1D" d="M124.3,144c0,0,28.2,4.9,31.6,6.3c3.4,1.5,7,5.1,15,8.3c8,3.2,14.3,6.3,18.7,6.3c4.4,0,6.3-2.4,4.9-7.5
			c-1.5-5.1-52-49.3-52-49.3l-23.1,11.6L124.3,144z"/>
		<path fill="#254870" d="M141.1,101.5l1.4,6.7c0,0-9.4,9.9-12.7,18.9c-3.3,9-5.5,17-5.5,17l-21.3,2.7c0,0-2.6-5.1-8.3-9.7
			c-5.8-4.6-13.4-7.3-13.4-7.3l-5.6-11.4L141.1,101.5z"/>
		<path fill="#F8B037" d="M139.4,47.5c0,0,9,0.3,16.3,9.2c7.3,8.8,12.6,12.1,17.7,16.2c5.1,4.1,11.9,7.4,11.9,7.4l-7.5,17.1
			c0,0-16.3-8.5-23.3-13.1c-7-4.6-15.1-6.7-15.1-6.7S128.1,54,139.4,47.5z"/>
		<path opacity="0.1" d="M141.3,63.3c-2.8-0.7-4.6,0.7-5.8,3.1c1.5,6.1,3.9,11.1,3.9,11.1s8,2.1,15.1,6.7c4.8,3.1,13.8,8,19.1,10.9
			l1.5-4.5c0,0-10-3.8-17.7-11C149.5,72.5,141.3,63.3,141.3,63.3z"/>
		<path fill="#F75D1D" d="M79.3,61.6l-8.6,10.1l2.3,33.8l13.7,21.5c0,0,15.8,0.7,28.2-1.5c12.4-2.2,16.9-6.6,24.1-17.9
			c7.2-11.3-0.5-50.5-0.5-50.5L79.3,61.6z"/>
		<path fill="#F8B037" d="M70.7,71.6c0,0-10.6,7.8-11.3,20.4c-0.7,12.6,15.2,54.7,15.2,54.7s1.7,2.4,7.9,1.5
			c6.2-0.9,9.5-5.3,9.5-5.3L70.7,71.6z"/>
		<polygon opacity="0.1" points="70.7,83 85.8,141.1 91.2,140 91.2,140 73.4,80.7 		"/>
		<path fill="#254870" d="M108.1,92.3c0,0-20.3-5.1-28.1-7.5C72.3,82.3,59.4,92,59.4,92s-1.5-4.1,0-10.2c1.5-6.1,3.3-3.4,7.2-10.2
			C70.6,64.8,80.1,58,80.1,58s46.7-14.4,55.4-16.6c8.7-2.2,9,0.3,11.7,3.3c2.7,3,4.9,2.6,8.5,5.2c3,2.2,7,7.1,7,7.1
			s-13.3-5.8-20.1,2.4c-6.8,8.3-13.2,19.8-20.2,27.8C115.3,95.2,108.1,92.3,108.1,92.3z"/>
		<path opacity="0.1" d="M85.8,85.2c0,0,3.9,8.6,13.7,9.8c9.9,1.3,12.1-5,18-7c5.9-2,14.2-7.2,16.9-11.6c2.7-4.4,5.6-13.1,5.6-13.1
			h-19.3L85.8,85.2z"/>
		<path fill="#F8E137" d="M119.6,129.4l-14.3,1.6c-0.7,0.1-1.3-0.4-1.4-1.1l-0.4-3.6c-0.1-0.7,0.4-1.3,1.1-1.4l14.3-1.6
			c0.7-0.1,1.3,0.4,1.4,1.1l0.4,3.6C120.8,128.7,120.3,129.3,119.6,129.4z"/>
		<path fill="#4D352C" d="M137.9,59.4c0,0,9.3-22,6.9-32c-2.4-9.9-10.9-12.7-10.9-12.7s-6.5-8.5-15.9-12C108.7-0.7,98.8-1,91.6,2.5
			C84.3,6.1,76.1,3.4,74.8,4c-1.3,0.5,2.7,6.6,2.7,6.6s-3.6,0.3-7.3,7.4c-3.8,7.1-3.9,8.9-3.1,9.6c0.9,0.8,4-1.5,4-1.5
			s-0.9,1.9-0.9,5.4c0,3.5,2.5,4.5,2.5,4.5L134,64.5L137.9,59.4z"/>
		<path fill="#E69C83" d="M131.8,57.6c0,0,4-3.1,7.6-2.7c3.6,0.4,6.7,3.3,3.4,9c-3.3,5.7-12.9,4.2-12.9,4.2L131.8,57.6z"/>
		<path fill="#FFAD91" d="M103.7,92L103.7,92c-15.5,0-28-12.5-28-28V43c0-15.5,12.5-28,28-28h0c15.5,0,28,12.5,28,28v21
			C131.7,79.5,119.1,92,103.7,92z"/>
		<path fill="#F75D1D" d="M119.5,38.6c7.2,0,14.2,2.1,20.1,6.2h0c2.2,1.5,3.4,4.2,2.9,6.8l-0.6,4c-0.7-0.4-1.6-0.7-2.5-0.7
			c-3.6-0.4-7.6,2.7-7.6,2.7L75.2,58l0.5-18L119.5,38.6z"/>
		<g>
			<path fill="#4D352C" d="M110.4,48.5c-0.5,2.5,1.8,4.7,4.4,3.9c1-0.3,1.8-1.1,2.1-2.1c0.9-2.6-1.3-5-3.8-4.5
				C111.8,46.1,110.7,47.2,110.4,48.5z"/>
		</g>
		<g>
			<path fill="#4D352C" d="M83.6,48.1c-0.9,2.7,1.5,5.2,4.3,4.4c1-0.3,1.8-1.1,2.1-2.1c0.9-2.7-1.5-5.2-4.3-4.4
				C84.7,46.3,83.9,47.1,83.6,48.1z"/>
		</g>
		<path fill="#E69C83" d="M98.2,63.3L98.2,63.3c1.9,0,3.5-1.5,3.6-3.5l0-1.9l-7-0.1l0,1.9C94.7,61.7,96.3,63.3,98.2,63.3z"/>
		<path fill="#28384F" d="M171.1,95.7c0,0-1.2-9.8,2.2-15.1c3.4-5.3,6.7-6.7,10.2-5.8c3.5,0.9,7.8,4.9,7.8,4.9l-7.3,20.3L171.1,95.7
			z"/>
		<path opacity="0.1" d="M181.8,157.7c0,0-6.5-0.9-13.9-5.3c-7.5-4.4-17.5-8.9-21.3-10.2c-3.8-1.3-19.5-7.1-19.5-7.1l-38.6,3.8
			l3.6,7.8h11l21.3-2.7c0,0,28.2,4.9,31.6,6.3c3.4,1.5,7,5.1,15,8.3c3.5,1.4,6.7,2.8,9.6,3.9L181.8,157.7z"/>
		<path fill="#254870" d="M176.6,162.7c0,0,4-3,6.6-6.8c2.6-3.8,3.3-10,3.3-10l15.3,16.9c0,0,9.5,5.7,11.5,9.4c2,3.6,2.6,8-4.2,7.7
			c-6.2-0.4-14-8.4-14-8.4L176.6,162.7z"/>
		<path opacity="0.1" d="M214,178.3c-0.1,0-3.9,0.5-8.2-1.9c-4.4-2.4-10.2-8.2-10.2-8.2l-15.2-9c-2,2.1-3.8,3.4-3.8,3.4l18.4,8.7
			c0,0,7.9,8,14,8.4C211.7,179.9,213.2,179.3,214,178.3z"/>
		<path fill="#254870" d="M93,138.9l-21.1,6.2l11.8,25.1c0,0-7.9,9.2-7.3,11.9c0.5,2.7,6.1,7.5,12.9,4.6
			c6.8-2.9,10.2-11.4,10.2-11.4s0.8,1.3,2.1,3c1.3,1.7,4.6,0.9,4.6,0.9s0.8-0.1,0.6-2.1c-0.2-2-3-7.1-3.6-9.6
			c-0.6-2.5-3.1-4.3-3.1-4.3L93,138.9z"/>
		<path fill="#4D352C" d="M137.9,59.4l-3.9,5.1l-2.2-1c0.1-7.7-0.9-30.3-3.6-34.5c-2.9-4.5-8.6-5.1-12-3.8
			c-3.5,1.2-9.7,5.2-16.3,5.6c-6.6,0.4-9.8-1-9.8-1s3.3-2.6,4.3-4c1-1.3,1.3-2.5,1.4-2.6c-0.3,0.1-6.9,2.7-14,5.5
			c-7.2,2.9-9.1,7.4-9.1,7.4s-2.5-1.1-2.5-4.5c0-3.5,0.9-5.4,0.9-5.4s-3.1,2.3-4,1.5c-0.9-0.8-0.7-2.5,3.1-9.6s7.3-7.4,7.3-7.4
			s-4-6-2.7-6.6c1.3-0.5,9.5,2.1,16.8-1.5C98.8-1,108.7-0.7,118,2.8c9.3,3.5,15.8,12,15.8,12s8.6,2.7,10.9,12.7
			C147.2,37.4,137.9,59.4,137.9,59.4z"/>
	</g>
	<path fill="#FFFFFF" d="M199.7,78h-16v-3c0-4.4,3.6-8,8-8h0c4.4,0,8,3.6,8,8V78z"/>
	<path fill="#FFFFFF" d="M185.6,109.1l-1.8,17.1c-0.1,0.5-0.3,1.1-0.6,1.5l-21.4,29c-4,5.4-6,11.9-5.7,18.6l0.5,11.5
		c0.6,15.8,13.6,28.2,29.4,28.2h37.3c16.2,0,29.4-13.2,29.4-29.4v0c0-12.4-7.7-23.4-19.4-27.6l-13.6-5c-7.1-2.6-12.9-7.8-16.3-14.5
		l-7.6-15.2c-0.1-0.2-0.2-0.4-0.2-0.6l-3.8-14.3c0-0.2-0.1-0.4-0.2-0.5l0,0c-0.9-1.9-3.4-2.3-4.9-0.8l-0.2,0.2
		C185.9,107.7,185.6,108.4,185.6,109.1z"/>
	<path fill="#254870" d="M201.4,89.2c0,0,1.6-2.6,1.3-6.2c-0.4-3.6-2-4.9-6-5.7s-12.8-1.8-15.5,0.7c-2.7,2.6-2.1,5.1-2.7,12.2
		c-0.7,7.1-2,10-1.8,12.9c0.2,2.9,1.2,3.5,8.7,4.6c7.5,1.1,10.1-0.2,12.3-3.8C199.8,100.3,201.4,89.2,201.4,89.2z"/>
	<g>
		<path fill="#4E5356" d="M172.6,189c-0.6-0.6-1-1.5-1.3-2.7l-0.7-3.8c-0.2-1.3-0.2-2.3,0.2-3c0.4-0.8,1.2-1.3,2.4-1.5
			c1.2-0.2,2.1-0.1,2.7,0.4c0.6,0.5,1,1.2,1.2,2.3l0.1,0.7l-2.4,0.5l-0.2-0.9c-0.1-0.4-0.2-0.8-0.3-1c-0.1-0.2-0.4-0.3-0.7-0.2
			c-0.4,0.1-0.6,0.2-0.6,0.5s0,0.6,0,1.1l1,5.2c0.1,0.4,0.2,0.8,0.4,1c0.2,0.2,0.5,0.3,0.8,0.2c0.6-0.1,0.9-0.7,0.7-1.6l-0.3-1.3
			l-1,0.2l-0.3-1.5l3.2-0.6l1.1,5.8l-1.6,0.3l-0.3-0.9c-0.2,0.8-0.7,1.3-1.6,1.4C174,189.8,173.2,189.6,172.6,189z"/>
		<path fill="#4E5356" d="M178,177.2l3.1-0.6c1.2-0.2,2.2-0.2,2.9,0.1c0.7,0.3,1.2,1,1.4,2.1c0.1,0.7,0.2,1.4,0.1,1.8
			c-0.1,0.5-0.4,0.9-0.9,1.2l2.6,5.1l-2.6,0.5l-2.2-4.8l-0.7,0.1l1,5l-2.5,0.5L178,177.2z M182.1,181.3c0.5-0.1,0.8-0.3,1-0.6
			c0.1-0.3,0.2-0.7,0.1-1.2c-0.1-0.5-0.3-0.9-0.5-1.1c-0.2-0.2-0.6-0.3-1-0.2l-0.8,0.2l0.6,3.1L182.1,181.3z"/>
		<path fill="#4E5356" d="M188.9,185.9c-0.6-0.5-1.1-1.4-1.3-2.6l-0.8-4.2c-0.2-1.2-0.2-2.2,0.2-2.9s1.2-1.2,2.4-1.4
			c1.2-0.2,2.1-0.1,2.8,0.4c0.6,0.5,1.1,1.4,1.3,2.6l0.8,4.2c0.2,1.2,0.2,2.2-0.2,2.9c-0.4,0.7-1.2,1.2-2.4,1.4
			C190.5,186.6,189.5,186.4,188.9,185.9z M192,184.1c0.1-0.3,0.1-0.6,0-1l-1.1-5.4c-0.1-0.4-0.2-0.7-0.4-0.9
			c-0.2-0.2-0.4-0.3-0.8-0.2c-0.3,0.1-0.5,0.2-0.6,0.5c-0.1,0.3-0.1,0.6,0,1l1.1,5.4c0.1,0.4,0.2,0.7,0.3,0.9
			c0.1,0.2,0.4,0.3,0.7,0.2S191.9,184.3,192,184.1z"/>
		<path fill="#4E5356" d="M197,184.3c-0.6-0.5-1.1-1.4-1.3-2.6l-0.8-4c-0.2-1.2-0.2-2.2,0.2-3c0.4-0.7,1.2-1.2,2.4-1.5
			c1.2-0.2,2.1-0.1,2.7,0.4c0.6,0.5,1,1.2,1.2,2.2l0.2,1l-2.4,0.5l-0.2-1.1c-0.1-0.4-0.2-0.8-0.3-1c-0.1-0.2-0.4-0.3-0.7-0.2
			s-0.6,0.2-0.6,0.5c-0.1,0.3-0.1,0.6,0,1l1,5.3c0.1,0.4,0.2,0.8,0.4,1c0.2,0.2,0.4,0.3,0.8,0.2c0.3-0.1,0.5-0.2,0.6-0.5
			c0-0.3,0-0.6-0.1-1l-0.2-1.2l2.4-0.5l0.2,1c0.2,1.1,0.1,1.9-0.2,2.6c-0.4,0.7-1.1,1.1-2.3,1.4C198.6,185,197.6,184.8,197,184.3z"
			/>
		<path fill="#4E5356" d="M202.1,172.5l5-1l0.3,1.7l-2.6,0.5l0.5,2.8l2-0.4l0.3,1.7l-2,0.4l0.7,3.3l2.6-0.5l0.3,1.7l-5.1,1
			L202.1,172.5z"/>
		<path fill="#4E5356" d="M208.3,171.2l3.1-0.6c1.2-0.2,2.2-0.2,2.9,0.1c0.7,0.3,1.2,1,1.4,2.1c0.1,0.7,0.2,1.4,0.1,1.8
			c-0.1,0.5-0.4,0.9-0.9,1.2l2.6,5.1l-2.6,0.5l-2.2-4.8l-0.7,0.1l1,5l-2.5,0.5L208.3,171.2z M212.4,175.4c0.5-0.1,0.8-0.3,1-0.6
			c0.1-0.3,0.2-0.7,0.1-1.2c-0.1-0.5-0.3-0.9-0.5-1.1s-0.6-0.3-1-0.2l-0.8,0.2l0.6,3.1L212.4,175.4z"/>
		<path fill="#4E5356" d="M216.6,169.6l2.5-0.5l2.2,11.2l-2.5,0.5L216.6,169.6z"/>
		<path fill="#4E5356" d="M220.8,168.8l5-1l0.3,1.7l-2.6,0.5l0.5,2.8l2-0.4l0.3,1.7l-2,0.4l0.7,3.3l2.6-0.5l0.3,1.7l-5.1,1
			L220.8,168.8z"/>
		<path fill="#4E5356" d="M229.6,178c-0.6-0.5-1.1-1.3-1.4-2.5l2.1-0.7c0.1,0.7,0.3,1.2,0.6,1.5c0.2,0.3,0.5,0.4,0.8,0.3
			c0.4-0.1,0.6-0.4,0.5-0.9c-0.1-0.4-0.3-0.8-0.5-1.1s-0.6-0.5-1.1-0.8l-1.1-0.7c-0.6-0.3-1-0.7-1.4-1.1s-0.6-0.9-0.7-1.5
			c-0.2-0.9,0-1.7,0.4-2.3s1.2-1,2.2-1.2c1.1-0.2,1.8,0,2.3,0.5c0.5,0.5,0.9,1.3,1.1,2.1l-2.1,0.7c-0.1-0.6-0.3-1-0.4-1.2
			c-0.1-0.2-0.4-0.3-0.6-0.3c-0.2,0-0.4,0.2-0.4,0.4c-0.1,0.2-0.1,0.4-0.1,0.6c0.1,0.4,0.2,0.7,0.4,0.9s0.6,0.5,1,0.7l1.1,0.6
			c0.6,0.4,1.2,0.8,1.6,1.2c0.4,0.5,0.7,1.1,0.8,1.8c0.1,0.5,0.1,1-0.1,1.5c-0.2,0.5-0.4,0.9-0.8,1.2s-0.9,0.6-1.5,0.7
			C231.1,178.6,230.3,178.4,229.6,178z"/>
	</g>
</g>
<g>
</g>
<g>
</g>
<g>
</g>
<g>
</g>
<g>
</g>
<g>
</g>
<g>
</g>
<g>
</g>
<g>
</g>
<g>
</g>
<g>
</g>
<g>
</g>
<g>
</g>
<g>
</g>
<g>
</g>
</svg>
